<svg xmlns="http://www.w3.org/2000/svg" width="512" height="512" viewBox="0 0 512 512"><path d="m299.973 27.71l-71.106 105.741c56.635 97.776 173.223 96.08 229.707 6.233L397.234 27.71l-23.162 60.055h-53.666zM132.525 111.7a12.44 12.44 0 0 0-6.873 2.478c-5.522 4.135-6.646 11.976-2.511 17.498c8.87 11.846 13.26 21.396 14.037 29.83c.8 8.708-2.652 15.753-7.412 22.537c-6.338 9.033-14.909 17.542-22.647 27.148c-10.39 12.9-19.323 27.549-21.99 46.477h25.357c4.122-20.098 18.263-33.366 29.637-46.55c10.596-12.284 19.259-24.564 21.553-39.122c2.33-14.786-1.424-32.466-18.526-55.305a12.5 12.5 0 0 0-10.625-4.992zm163.246 12.5a20 20 0 1 1 0 40 a20 20 0 1 1 0-40zm95.9 0a20 20 0 1 1 0 40 a20 20 0 1 1 0-40zm-111.708 82.93l-39.315 50.538h25.147l54.262 54.531l54.263-54.531h22.155l-5.932-41.678c-34.466 11.876-74.24 10.481-110.58-8.86M31.84 274.333l41.142 41.348H300.01l-41.145-41.348zm349.408 0l-41.143 41.348h98.913l41.142-41.348zM77.852 332.348V478.52h233.873V332.348zm250.539 0V478.52h105.757V332.348zm-105.063 24.595c18.23 10.66 28.14 30.08 27.678 6.412-14.318 14.312-14.318M205.443 427l15.948 27.66c-8.576 4.58-18.21 7.03-27.96 6.78c-8.942-.23-17.854-2.6-26.161-7.34l15.527-26.75a22.56 22.56 0 0 0 11.021 2.86c4.25 0 8.226-1.17 11.625-3.21"
fill="currentColor"/></svg>