<!-- Sprite -->
<svg xmlns="http://www.w3.org/2000/svg">

    <!-- Icon Github -->
    <symbol id="icon-github" viewBox="0 0 24 24">
        <path fill="currentColor"
            d="M12 2A10 10 0 0 0 2 12c0 4.42 2.87 8.17 6.84 9.5c.5.08.66-.23.66-.5v-1.69c-2.77.6-3.36-1.34-3.36-1.34c-.46-1.16-1.11-1.47-1.11-1.47c-.91-.62.07-.6.07-.6c1 .07 1.53 1.03 1.53 1.03c.87 1.52 2.34 1.07 2.91.83c.09-.65.35-1.09.63-1.34c-2.22-.25-4.55-1.11-4.55-4.92c0-1.11.38-2 1.03-2.71c-.1-.25-.45-1.29.1-2.64c0 0 .84-.27 2.75 1.02c.79-.22 1.65-.33 2.5-.33s1.71.11 2.5.33c1.91-1.29 2.75-1.02 2.75-1.02c.55 1.35.2 2.39.1 2.64c.65.71 1.03 1.6 1.03 2.71c0 3.82-2.34 4.66-4.57 4.91c.36.31.69.92.69 1.85V21c0 .27.16.59.67.5C19.14 20.16 22 16.42 22 12A10 10 0 0 0 12 2" />
    </symbol>

    <!-- Icon LinkedIn -->
    <symbol id="icon-linkedin" viewBox="0 0 24 24">
        <path fill="currentColor"
            d="M19 3a2 2 0 0 1 2 2v14a2 2 0 0 1-2 2H5a2 2 0 0 1-2-2V5a2 2 0 0 1 2-2zm-.5 15.5v-5.3a3.26 3.26 0 0 0-3.26-3.26c-.85 0-1.84.52-2.32 1.3v-1.11h-2.79v8.37h2.79v-4.93c0-.77.62-1.4 1.39-1.4a1.4 1.4 0 0 1 1.4 1.4v4.93zM6.88 8.56a1.68 1.68 0 0 0 1.68-1.68c0-.93-.75-1.69-1.68-1.69a1.69 1.69 0 0 0-1.69 1.69c0 .93.76 1.68 1.69 1.68m1.39 9.94v-8.37H5.5v8.37z" />
    </symbol>

    <!-- Icon E-Mail -->
    <symbol id="icon-email" viewBox="0 0 24 24">
    <path fill="currentColor" d="M20 4H4c-1.1 0-1.99.9-1.99 2L2 18c0 1.1.9 2 2 2h16c1.1 0 2-.9 2-2V6c0-1.1-.9-2-2-2m0 4l-8 5l-8-5V6l8 5l8-5z"/>
    </symbol>

    <!-- Icon Localisation -->
    <symbol id="icon-localisation" viewBox="0 0 24 24">
    <path fill="currentColor" d="M12 2C7.589 2 4 5.589 4 9.995C3.971 16.44 11.696 21.784 12 22c0 0 8.029-5.56 8-12c0-4.411-3.589-8-8-8m0 12c-2.21 0-4-1.79-4-4s1.79-4 4-4s4 1.79 4 4s-1.79 4-4 4"/></symbol>

    <!-- Icon HTML5 -->
    <symbol id="html5" viewBox="0 0 24 24">
    <path fill="currentColor" d="m3 2l1.578 17.824L12 22l7.467-2.175L21 2zm14.049 6.048H9.075l.172 2.016h7.697l-.626 6.565l-4.246 1.381l-4.281-1.455l-.288-2.932h2.024l.16 1.411l2.4.815l2.346-.763l.297-3.005H7.416l-.562-6.05h10.412z"/>
    </symbol>

    <!-- Icon CSS -->
    <symbol id="css3" viewBox="0 0 24 24">
    <path fill="currentColor" d="m3 2l1.578 17.834L12 22l7.468-2.165L21 2zm13.3 14.722l-4.293 1.204H12l-4.297-1.204l-.297-3.167h2.108l.15 1.526l2.335.639l2.34-.64l.245-3.05h-7.27l-.187-2.006h7.64l.174-2.006H6.924l-.176-2.006h10.506z"/>
    </symbol>

    <!-- Icon JS -->
    <symbol id="javascript" viewBox="0 0 24 24">
    <path fill="currentColor" d="M3 3v18h18V3zm9.813 14.023c0 1.77-1.045 2.584-2.555 2.584c-1.335 0-2.12-.697-2.526-1.568l1.394-.871c.232.493.493.87 1.103.87c.58 0 .9-.203.9-1.073v-5.69h1.684zm4.006 2.584c-1.567 0-2.583-.784-3.106-1.713l1.394-.813c.377.58.87 1.016 1.683 1.016c.697 0 1.133-.32 1.133-.871c0-.58-.436-.784-1.22-1.133l-.406-.174c-1.22-.493-2.033-1.19-2.033-2.584c0-1.277.93-2.206 2.468-2.206c1.075 0 1.83.378 2.38 1.364l-1.305.871c-.29-.493-.581-.725-1.104-.725c-.493 0-.813.32-.813.726c0 .493.32.696 1.017 1.016l.406.174c1.422.61 2.264 1.22 2.264 2.67c.03 1.54-1.16 2.381-2.758 2.381"/>
    </symbol>

    <!-- Icon React -->
    <symbol id="react" viewBox="0 0 24 24">
    <path fill="currentColor" d="M18.323 9.007c-.226-.033-.42-.13-.646-.194c.033-.129.033-.258.097-.452c.452-2.322.13-4.16-.903-4.806c-1.032-.58-2.71.032-4.387 1.484c-.13.129-.355.258-.484.451c-.097-.096-.226-.193-.323-.322c-1.774-1.58-3.516-2.226-4.612-1.613c-1.033.58-1.355 2.355-.904 4.516c.033.226.097.452.13.645c-.226.033-.485.13-.71.226C3.484 9.684 2 10.878 2 12.007c0 1.225 1.58 2.451 3.742 3.16c.193.033.355.13.548.13c-.032.226-.129.451-.129.71c-.42 2.129-.096 3.838.936 4.419c1.032.645 2.838 0 4.516-1.548c.129-.13.258-.226.42-.355a4 4 0 0 0 .548.451c1.613 1.452 3.29 2.033 4.355 1.452c1.032-.645 1.387-2.452.935-4.71c-.032-.129-.032-.354-.13-.548c.13-.032.227-.032.356-.13C20.355 14.362 22 13.137 22 11.91c-.032-1-1.58-2.161-3.677-2.903m-5.29-3.29c1.45-1.259 2.806-1.71 3.45-1.388c.646.355.904 1.903.485 3.936c-.032.129-.032.225-.097.419c-.871-.194-1.71-.355-2.613-.42c-.484-.709-1.032-1.45-1.613-2.032a1.8 1.8 0 0 1 .387-.516M8.547 14.07c.194.355.42.678.646 1a10.6 10.6 0 0 1-1.807-.258a8 8 0 0 1 .645-1.71c.13.29.355.678.516.968m-1.16-4.645a22 22 0 0 1 1.773-.323c-.226.323-.42.646-.58 1c-.162.355-.355.646-.549 1.033c-.29-.613-.451-1.162-.645-1.71m1.031 2.677c.226-.548.549-1.032.871-1.58c.323-.549.645-1.033.936-1.549c.58-.032 1.161-.032 1.774-.032c.58 0 1.226.032 1.774.032c.355.484.645 1 .936 1.484c.322.484.58 1.033.87 1.58c-.225.55-.548 1.033-.87 1.582c-.323.548-.646 1.032-.936 1.548c-.58.032-1.161.032-1.806.032s-1.226-.032-1.774-.032c-.355-.484-.646-1-.936-1.548c-.29-.549-.548-.968-.839-1.517m7.033 1.968c.193-.355.354-.677.548-1.032c.226.548.452 1.129.645 1.71c-.58.129-1.226.225-1.87.322c.257-.322.483-.677.677-1m.58-2.968c-.193-.354-.355-.677-.548-1.032s-.42-.645-.58-.935a22 22 0 0 1 1.773.322c-.193.549-.419 1.097-.645 1.645M12 6.75c.42.451.774.903 1.129 1.387a28 28 0 0 0-2.322 0c.419-.516.838-.968 1.193-1.387M7.484 4.36c.645-.354 2.129.13 3.613 1.549c.097.097.193.193.322.258c-.58.645-1.129 1.355-1.677 2.032a23 23 0 0 0-2.613.42c-.032-.194-.097-.42-.129-.581c-.355-1.903-.129-3.323.484-3.678M6.58 14.62c-.13-.033-.323-.097-.484-.13a7.2 7.2 0 0 1-2.484-1.225c-.452-.323-.678-.71-.774-1.162c0-.71 1.258-1.612 3.032-2.258c.226-.096.452-.129.677-.225c.258.87.581 1.677.936 2.483c-.323.807-.678 1.613-.903 2.517m4.484 3.774a7.1 7.1 0 0 1-2.226 1.355a1.54 1.54 0 0 1-1.355.032c-.645-.355-.871-1.71-.549-3.58c.033-.227.097-.452.13-.646c.87.194 1.774.323 2.612.355c.484.71 1.097 1.451 1.678 2.097c-.032.193-.162.29-.29.387m.967-.903c-.42-.452-.774-.904-1.161-1.388c.355 0 .71.033 1.129.033s.806 0 1.161-.033c-.354.42-.71.871-1.129 1.387m5.097 1.128c-.032.452-.258.936-.645 1.226c-.645.355-1.936-.096-3.355-1.354c-.129-.13-.322-.259-.484-.452a17 17 0 0 0 1.613-2.097c.903-.032 1.774-.226 2.613-.42c.032.13.032.323.097.452c.226.904.226 1.807.161 2.645m.71-4.16c-.097.032-.226.032-.355.096c-.258-.871-.645-1.677-1-2.484c.355-.774.677-1.613.935-2.451c.226.032.42.129.581.193c1.806.645 3.064 1.548 3.064 2.258c.033.742-1.29 1.742-3.225 2.387M12 13.844c1 0 1.774-.806 1.774-1.774A1.79 1.79 0 0 0 12 10.297c-.935 0-1.774.806-1.774 1.774S11 13.845 12 13.845"/>
    </symbol>

    <!-- Icon Bulma -->
    <symbol id="bulma" viewBox="0 0 24 24">
    <path fill="currentColor" d="m11.38 2l-5 5l-1.25 8.75L11.38 22l7.5-5l-5-5l3.75-3.75z"/>
    </symbol>

    <!-- Icon PostgreSQL -->
    <symbol id="postgresql" viewBox="0 0 24 24">
    <path fill="currentColor" d="M16.238 2a8.5 8.5 0 0 0-2.295.336l-.053.017a9 9 0 0 0-1.425-.138c-.982-.017-1.825.222-2.505.618c-.67-.232-2.06-.633-3.525-.553c-1.02.056-2.133.366-2.958 1.237c-.823.87-1.258 2.218-1.166 4.051c.025.506.17 1.331.408 2.4c.24 1.068.575 2.319.994 3.46s.879 2.166 1.596 2.863c.359.35.852.642 1.434.618c.408-.016.777-.195 1.095-.46c.155.204.321.294.472.376c.19.104.375.175.567.222c.344.086.933.2 1.623.083c.235-.039.483-.116.73-.225c.008.275.02.544.03.817c.034.863.056 1.66.315 2.36c.042.114.156.702.606 1.221s1.332.845 2.336.63c.708-.152 1.609-.425 2.207-1.277c.592-.842.859-2.05.911-4.008a4 4 0 0 1 .046-.28l.14.013h.017c.756.034 1.576-.073 2.261-.392c.607-.28 1.066-.565 1.4-1.069a1.07 1.07 0 0 0 .2-.536c.025-.26-.124-.666-.371-.854c-.496-.377-.808-.233-1.142-.164q-.496.109-1.002.122a19.2 19.2 0 0 0 2.049-4.871c.233-.9.364-1.73.375-2.456c.01-.726-.049-1.368-.484-1.924c-1.359-1.737-3.27-2.217-4.748-2.234h-.138zm-.039.533c1.399-.013 3.185.38 4.468 2.019c.288.368.374.906.364 1.57c-.01.662-.133 1.456-.357 2.325a18.7 18.7 0 0 1-2.415 5.406q.062.044.132.072c.242.1.793.186 1.892-.04c.276-.058.479-.097.689.063a.44.44 0 0 1 .152.354a.6.6 0 0 1-.108.28c-.212.319-.632.621-1.17.87c-.475.222-1.157.338-1.762.345a2.7 2.7 0 0 1-.821-.094l-.015-.006c-.092.883-.303 2.627-.44 3.423c-.11.642-.303 1.152-.67 1.534c-.367.381-.886.611-1.585.761c-.865.186-1.495-.014-1.902-.357c-.406-.341-.592-.794-.703-1.072c-.077-.192-.117-.44-.155-.772a17 17 0 0 1-.086-1.195q-.039-1.05-.025-2.102a2.55 2.55 0 0 1-1.293.633a3.4 3.4 0 0 1-1.393-.075a2 2 0 0 1-.433-.167c-.142-.076-.277-.162-.367-.331a.47.47 0 0 1-.048-.318a.5.5 0 0 1 .182-.276c.165-.134.383-.209.713-.277c.599-.123.808-.207.935-.308c.109-.087.231-.262.448-.519l-.002-.034a2.5 2.5 0 0 1-1.109-.298a37 37 0 0 0-1.542 1.743c-.327.392-.689.617-1.07.633s-.727-.176-1.02-.46c-.586-.57-1.054-1.549-1.461-2.655c-.407-1.107-.738-2.34-.973-3.39c-.236-1.05-.375-1.896-.395-2.305c-.087-1.735.319-2.904 1.014-3.641c.697-.738 1.652-1.017 2.583-1.07c1.67-.096 3.257.486 3.578.611c.619-.42 1.415-.681 2.41-.665c.473.007.943.068 1.401.182l.017-.007q.303-.107.616-.179a8 8 0 0 1 1.725-.209zm.127.559h-.122q-.718.01-1.42.16a6.24 6.24 0 0 1 2.375 1.875a7 7 0 0 1 .944 1.6q.136.332.188.55c.017.072.03.133.033.196a.3.3 0 0 1-.01.12l-.005.011c.025.73-.155 1.225-.177 1.922c-.017.505.112 1.098.144 1.746c.03.608-.043 1.276-.438 1.932l.095.12c1.045-1.646 1.798-3.466 2.2-5.019c.215-.836.329-1.593.339-2.193c.008-.6-.104-1.035-.246-1.217c-1.118-1.43-2.632-1.794-3.9-1.804m-3.992.213c-.985.003-1.691.3-2.227.746c-.553.46-.924 1.092-1.167 1.737A7.4 7.4 0 0 0 8.513 7.8l.01-.007a4.3 4.3 0 0 1 1.107-.43c.418-.095.87-.125 1.278.033s.745.53.868 1.096c.587 2.714-.182 3.723-.466 4.485q-.161.415-.276.844c.036-.008.072-.018.108-.022c.2-.016.357.05.45.09c.285.119.48.367.586.65q.042.113.06.237a.3.3 0 0 1 .016.106a46 46 0 0 0 .011 3.115c.02.448.048.843.083 1.155c.036.31.087.547.12.627c.106.267.262.616.544.854c.281.236.686.395 1.424.236c.64-.137 1.035-.328 1.3-.602c.262-.274.42-.656.52-1.24c.152-.875.455-3.413.492-3.89c-.017-.36.036-.637.151-.848a1 1 0 0 1 .46-.42c.08-.036.154-.06.214-.078a5 5 0 0 0-.202-.27a3.7 3.7 0 0 1-.555-.917a7 7 0 0 0-.214-.402c-.111-.2-.251-.45-.398-.731c-.293-.563-.612-1.244-.778-1.908c-.165-.664-.19-1.35.234-1.835c.375-.43 1.034-.608 2.022-.508c-.03-.087-.047-.16-.096-.277a6.5 6.5 0 0 0-.867-1.47c-.838-1.07-2.194-2.132-4.289-2.166h-.096zM6.8 3.348q-.159 0-.316.01c-.842.048-1.638.292-2.207.895c-.57.604-.945 1.593-.863 3.23c.015.31.15 1.179.382 2.21c.23 1.032.558 2.246.952 3.319s.871 2.006 1.325 2.447c.228.221.426.31.606.303c.181-.008.399-.113.665-.432q.726-.877 1.508-1.707a2.91 2.91 0 0 1-.973-2.625a10 10 0 0 0 .088-1.646c-.01-.444-.042-.739-.042-.923v-.025a8.2 8.2 0 0 1 .493-2.814c.233-.62.58-1.25 1.101-1.76c-.511-.168-1.42-.425-2.403-.473a6 6 0 0 0-.317-.009zM17.131 7.75c-.566.008-.883.153-1.05.344c-.236.271-.258.746-.112 1.331c.146.586.448 1.24.731 1.785c.142.273.28.518.39.717c.112.2.194.341.244.462a3 3 0 0 0 .148.302c.219-.463.258-.917.236-1.39c-.03-.586-.165-1.185-.145-1.792c.022-.709.162-1.17.175-1.719a5 5 0 0 0-.617-.04m-6.862.096a2.4 2.4 0 0 0-.513.062a4 4 0 0 0-.96.374q-.154.082-.292.19l-.018.016c.005.122.03.417.04.851c.01.475-.003 1.081-.094 1.737c-.2 1.425.835 2.605 2.05 2.607c.07-.293.187-.59.304-.902c.338-.912 1.004-1.577.443-4.172c-.091-.425-.273-.596-.523-.693a1.2 1.2 0 0 0-.437-.07m6.598.17h.041a.7.7 0 0 1 .15.018q.069.015.116.046a.14.14 0 0 1 .062.092v.006a.2.2 0 0 1-.03.113a.6.6 0 0 1-.092.125a.56.56 0 0 1-.321.177a.5.5 0 0 1-.342-.086a.5.5 0 0 1-.108-.099a.2.2 0 0 1-.053-.105a.14.14 0 0 1 .035-.107a.3.3 0 0 1 .098-.075a1.1 1.1 0 0 1 .444-.107zm-6.517.14q.066 0 .139.01c.127.018.24.052.327.102q.064.033.11.089q.026.029.038.066q.011.037.008.075a.25.25 0 0 1-.063.129a.5.5 0 0 1-.119.108a.53.53 0 0 1-.373.094a.6.6 0 0 1-.35-.19a.6.6 0 0 1-.099-.136a.23.23 0 0 1-.034-.148c.013-.09.087-.137.16-.162a.7.7 0 0 1 .255-.034zm7.55 6.12h-.002c-.123.044-.224.063-.309.1a.38.38 0 0 0-.199.178c-.052.096-.097.266-.084.555q.058.04.123.059c.143.043.382.071.649.067c.531-.006 1.186-.13 1.533-.291c.285-.133.55-.306.786-.513c-1.162.24-1.818.176-2.22.01a1.1 1.1 0 0 1-.277-.167zm-6.692.078h-.018c-.044.004-.108.019-.232.156c-.29.325-.392.53-.631.72c-.24.19-.55.292-1.171.42a1.6 1.6 0 0 0-.384.12c.024.02.021.024.058.043c.09.05.208.095.302.119c.266.066.705.144 1.162.066c.458-.078.934-.297 1.34-.866c.07-.098.077-.243.02-.4c-.059-.155-.186-.29-.276-.327a.6.6 0 0 0-.17-.05z"/>
    </symbol>

    <!-- Icon Node.JS -->
    <symbol id="nodejs" viewBox="0 0 128 128">
    <path fill="currentColor" d="M86.072 24.664a.7.7 0 0 0-.351.09a.76.76 0 0 0-.375.637v18.93a.56.56 0 0 1-.264.464a.55.55 0 0 1-.52 0l-3.066-1.773a1.49 1.49 0 0 0-1.478 0L67.75 50.146a1.48 1.48 0 0 0-.754 1.28v14.238c0 .524.291 1.021.754 1.283l12.27 7.135a1.49 1.49 0 0 0 1.476 0l12.27-7.135c.463-.262.754-.759.754-1.283V30.168c0-.553-.291-1.05-.754-1.31l-7.32-4.104a.84.84 0 0 0-.374-.09M13.686 42.43c-.23 0-.461.086-.663.2L.753 49.739A1.49 1.49 0 0 0 0 51.047l.03 19.101c0 .263.142.526.374.643a.66.66 0 0 0 .725 0l7.295-4.193a1.48 1.48 0 0 0 .75-1.282v-8.939c0-.524.29-1.021.754-1.283l3.095-1.805a1.4 1.4 0 0 1 .752-.203c.26 0 .522.057.725.203l3.096 1.805c.463.262.754.759.754 1.283v8.94c0 .522.288 1.02.75 1.28l7.236 4.194a.7.7 0 0 0 .752 0a.72.72 0 0 0 .377-.643V51.047c0-.524-.29-1.02-.754-1.283L14.47 42.63a1.8 1.8 0 0 0-.664-.201zm100.67.207v.002l-.002.002c-.253 0-.505.065-.737.197l-12.271 7.13c-.463.264-.75.759-.75 1.284v14.24c0 .524.287 1.02.75 1.281l12.183 6.989a1.43 1.43 0 0 0 1.448 0l7.38-4.133a.72.72 0 0 0 .375-.643a.72.72 0 0 0-.375-.64L110.03 61.21a.76.76 0 0 1-.375-.645V56.11a.72.72 0 0 1 .375-.638l3.854-2.213a.7.7 0 0 1 .752 0l3.845 2.213a.76.76 0 0 1 .377.638v3.494c0 .263.144.525.375.641a.7.7 0 0 0 .754 0l7.291-4.28a1.46 1.46 0 0 0 .727-1.28V51.22c0-.524-.292-1.019-.727-1.282l-12.181-7.101a1.5 1.5 0 0 0-.74-.201zm-67.043.049a1.4 1.4 0 0 0-.682.183l-12.17 7.067l4.258 7.81L47.457 42.7a2 2 0 0 0-.143-.013h-.002zm.566.148l8.607 14.814l4.045-7.445a1.3 1.3 0 0 0-.25-.201l-6.271-3.643l-6.037-3.488q-.046-.02-.094-.037m-.25.06l-8.774 15.104l8.702 15.965l.072-.014l8.719-16.047l-8.72-15.007zm-13.377 7.172a1.35 1.35 0 0 0-.576 1.123V65.49c0 .228.062.45.168.647l4.728-8.143zm26.45.342l-4.071 7.49l4.318 7.434V51.189c0-.28-.092-.553-.248-.78zm20.056 2.865q.099 0 .19.045l4.193 2.448c.116.058.175.201.175.318v4.893c0 .146-.06.264-.175.322l-4.196 2.445a.43.43 0 0 1-.377 0l-4.195-2.443c-.116-.058-.176-.205-.176-.322v-4.893c0-.146.061-.261.176-.32l4.195-2.448a.4.4 0 0 1 .19-.045m33.555 1.98a.26.26 0 0 0-.145.046l-2.346 1.369a.3.3 0 0 0-.142.26v2.74c0 .116.055.204.142.262l2.346 1.369a.26.26 0 0 0 .289 0l2.344-1.37a.31.31 0 0 0 .144-.261V56.93a.3.3 0 0 0-.144-.26l-2.344-1.371a.26.26 0 0 0-.144-.043zm-57.819 2.9l-8.512 15.665l.014-.007l12.287-7.137c.343-.194.563-.526.637-.903l-4.426-7.619zm-17.783.095l-4.715 8.117c.1.123.217.23.35.31L46.5 73.737l.13.075h.003a1.4 1.4 0 0 0 .3.126q.047.013.092.022q.089.02.178.027q.043.003.086.002l-8.578-15.74zm24.51 13.393c-.427 0-.853.1-1.215.304l-11.55 6.73A2.46 2.46 0 0 0 49.24 80.8v13.42c0 .874.463 1.689 1.215 2.127l3.041 1.746c1.475.728 1.995.724 2.66.724c2.17 0 3.416-1.338 3.416-3.638V81.936a.356.356 0 0 0-.345-.352h-1.475a.356.356 0 0 0-.352.352v13.248c0 1.019-1.066 2.039-2.773 1.166l-3.156-1.834c-.116-.058-.174-.207-.174-.323V80.768c0-.116.058-.263.174-.32l11.545-6.696c.087-.058.232-.058.35 0l11.544 6.695c.115.06.176.176.176.32v13.424c0 .145-.06.265-.176.323l-11.547 6.726c-.087.058-.232.058-.35 0l-2.949-1.777c-.088-.058-.204-.086-.29-.03c-.81.468-.953.528-1.735.79c-.174.058-.463.172.115.492l3.852 2.303c.376.203.78.318 1.215.318c.434 0 .866-.115 1.213-.26L75.98 96.35a2.46 2.46 0 0 0 1.215-2.13V80.8c0-.874-.463-1.686-1.215-2.123l-11.546-6.73a2.5 2.5 0 0 0-1.213-.305zm18.027 6.129a2.236 2.236 0 0 0-2.227 2.244a2.236 2.236 0 0 0 2.227 2.242c1.217 0 2.23-1.02 2.23-2.242a2.254 2.254 0 0 0-2.23-2.243zm-.03.376h.003a1.86 1.86 0 0 1 1.883 1.868c0 1.02-.841 1.89-1.883 1.89c-1.012 0-1.854-.842-1.854-1.89s.87-1.866 1.852-1.868zm-.81.614v2.56h.494v-1.013h.438c.174 0 .23.058.26.203c0 .03.086.669.086.785h.52c-.06-.116-.087-.468-.116-.672c-.028-.32-.056-.551-.404-.58c.174-.059.46-.145.46-.611c0-.67-.58-.67-.869-.67zm.438.408h.402c.146 0 .379 0 .379.35c0 .116-.059.35-.379.35h-.402zm-14.469 2.01c-3.3 0-5.272 1.399-5.272 3.758c0 2.534 1.969 3.228 5.124 3.548c3.79.38 4.08.935 4.08 1.692c0 1.31-1.042 1.861-3.473 1.861c-3.068 0-3.735-.757-3.967-2.299c0-.176-.14-.29-.314-.29H61.05a.35.35 0 0 0-.35.35c0 1.98 1.044 4.307 6.11 4.307c3.645 0 5.755-1.456 5.755-4.02c0-2.503-1.68-3.174-5.238-3.64c-3.59-.466-3.965-.728-3.965-1.572c0-.699.32-1.629 2.98-1.629c2.375 0 3.272.524 3.62 2.125a.34.34 0 0 0 .316.264h1.534c.087 0 .177-.057.236-.115a.5.5 0 0 0 .086-.264c-.231-2.795-2.053-4.076-5.758-4.076z"/>
    </symbol>

    <!-- Icon Java -->
    <symbol id="java" viewBox="0 0 1024 1024">
    <path fill="currentColor" fill-rule="evenodd" d="M394.68 756.99s-34.325 19.95 24.343 26.6c71.1 8.05 107.351 7 185.632-7.874c0 0 20.665 12.949 49.385 24.149c-175.475 75.074-397.184-4.375-259.36-42.875m-21.366-98.173s-38.352 28.35 20.315 34.475c75.83 7.875 135.897 8.4 239.571-11.55c0 0 14.36 14.525 36.952 22.4c-212.427 62.123-448.846 5.075-296.838-45.325m180.73-166.422c43.256 49.699-11.384 94.498-11.384 94.498s109.804-56.7 59.368-127.573c-47.11-66.15-83.185-99.049 112.255-212.273c.175 0-306.819 76.65-160.24 245.348M786.26 829.439s25.393 20.825-27.846 37.1c-101.397 30.625-421.7 39.9-510.664 1.225c-32.048-13.825 28.02-33.25 46.934-37.275c19.613-4.2 30.997-3.5 30.997-3.5c-35.551-25.025-229.94 49.175-98.771 70.35c357.605 58.1 652.165-26.075 559.35-67.9M411.142 557.144S248.1 595.818 353.35 609.818c44.482 5.95 133.095 4.55 215.58-2.275c67.423-5.6 135.196-17.85 135.196-17.85s-23.818 10.15-40.98 21.875c-165.493 43.575-485.096 23.275-393.156-21.175c77.93-37.45 141.151-33.25 141.151-33.25M703.6 720.416c168.296-87.324 90.365-171.322 36.077-159.948c-13.31 2.8-19.264 5.25-19.264 5.25s4.903-7.7 14.36-11.025c107.351-37.8 190.01 111.299-34.675 170.273c0-.175 2.627-2.45 3.502-4.55M602.028 64s93.166 93.1-88.438 236.246c-145.53 114.8-33.274 180.424 0 255.148c-84.936-76.65-147.28-144.024-105.425-206.848C469.634 256.672 639.68 211.873 602.028 64m-174.25 893.188c161.466 10.325 409.443-5.775 415.222-82.075c0 0-11.208 28.875-133.445 51.975c-137.824 25.9-307.87 22.925-408.567 6.3c0-.175 20.665 16.975 126.79 23.8"/>
    </symbol>

    <!-- Icon Spring Boot -->
    <symbol id="springboot" viewBox="0 0 24 24">
    <path fill="currentColor" d="m23.693 10.706l-4.73-8.185c-.41-.71-1.417-1.294-2.24-1.294h-9.45c-.82 0-1.831.584-2.24 1.294L.306 10.706c-.41.71-.41 1.873 0 2.584l4.725 8.189c.41.71 1.417 1.294 2.24 1.294h9.455c.82 0 1.826-.584 2.24-1.294l4.726-8.19c.41-.71.41-1.873 0-2.583zM10.976 5.755c0-.537.438-.975.974-.975s.975.438.975.975v5.821a.976.976 0 0 1-1.948 0zm.974 12.43a6.616 6.616 0 0 1-6.607-6.609A6.64 6.64 0 0 1 8.01 6.272a.866.866 0 0 1 1.214.18a.866.866 0 0 1-.178 1.213a4.876 4.876 0 0 0 5.812 7.827a4.88 4.88 0 0 0 1.967-3.916a4.9 4.9 0 0 0-1.986-3.925a.87.87 0 0 1-.183-1.214a.87.87 0 0 1 1.214-.183a6.63 6.63 0 0 1 2.687 5.322a6.613 6.613 0 0 1-6.608 6.608"/>
    </symbol>

    <!-- Icon VS Code -->
    <symbol id="vscode" viewBox="0 0 16 16">
    <path fill="currentColor" d="M10.863 13.92a.805.805 0 0 1-.923-.159L4.816 9.063l-2.232 1.703a.54.54 0 0 1-.691-.031l-.716-.655a.547.547 0 0 1 0-.805L3.112 7.5L1.177 5.725a.547.547 0 0 1 0-.805l.716-.655a.54.54 0 0 1 .691-.03l2.232 1.702L9.94 1.24a.81.81 0 0 1 .923-.158l2.677 1.294c.281.136.46.422.46.736V8h-3.248V4.534L6.864 7.5l3.888 2.966V8H14v3.889c0 .314-.179.6-.46.736z"/>
    </symbol>

    <!-- Icon Git -->
    <symbol id="git" viewBox="0 0 24 24">
    <path fill="currentColor" fill-rule="evenodd" d="M21.623 11.11L12.89 2.376a1.29 1.29 0 0 0-1.821 0L9.256 4.191l2.3 2.3a1.53 1.53 0 0 1 1.937 1.95l2.217 2.217a1.532 1.532 0 1 1-.918.864l-2.068-2.068v5.441a1.533 1.533 0 1 1-1.26-.045V9.36a1.53 1.53 0 0 1-.832-2.01L8.365 5.081l-5.988 5.987a1.29 1.29 0 0 0 0 1.822l8.733 8.732a1.29 1.29 0 0 0 1.821 0l8.692-8.692a1.29 1.29 0 0 0 0-1.822"/>
    </symbol>

    <!-- Icon Docker -->
    <symbol id="docker" viewBox="0 0 24 24">
    <path fill="currentColor" d="M13.983 11.078h2.119a.186.186 0 0 0 .186-.185V9.006a.186.186 0 0 0-.186-.186h-2.119a.185.185 0 0 0-.185.185v1.888c0 .102.083.185.185.185m-2.954-5.43h2.118a.186.186 0 0 0 .186-.186V3.574a.186.186 0 0 0-.186-.185h-2.118a.185.185 0 0 0-.185.185v1.888c0 .102.082.185.185.185m0 2.716h2.118a.187.187 0 0 0 .186-.186V6.29a.186.186 0 0 0-.186-.185h-2.118a.185.185 0 0 0-.185.185v1.887c0 .102.082.185.185.186m-2.93 0h2.12a.186.186 0 0 0 .184-.186V6.29a.185.185 0 0 0-.185-.185H8.1a.185.185 0 0 0-.185.185v1.887c0 .102.083.185.185.186m-2.964 0h2.119a.186.186 0 0 0 .185-.186V6.29a.185.185 0 0 0-.185-.185H5.136a.186.186 0 0 0-.186.185v1.887c0 .102.084.185.186.186m5.893 2.715h2.118a.186.186 0 0 0 .186-.185V9.006a.186.186 0 0 0-.186-.186h-2.118a.185.185 0 0 0-.185.185v1.888c0 .102.082.185.185.185m-2.93 0h2.12a.185.185 0 0 0 .184-.185V9.006a.185.185 0 0 0-.184-.186h-2.12a.185.185 0 0 0-.184.185v1.888c0 .102.083.185.185.185m-2.964 0h2.119a.185.185 0 0 0 .185-.185V9.006a.185.185 0 0 0-.184-.186h-2.12a.186.186 0 0 0-.186.186v1.887c0 .102.084.185.186.185m-2.92 0h2.12a.185.185 0 0 0 .184-.185V9.006a.185.185 0 0 0-.184-.186h-2.12a.185.185 0 0 0-.184.185v1.888c0 .102.082.185.185.185M23.763 9.89c-.065-.051-.672-.51-1.954-.51q-.508.001-1.01.087c-.248-1.7-1.653-2.53-1.716-2.566l-.344-.199l-.226.327c-.284.438-.49.922-.612 1.43c-.23.97-.09 1.882.403 2.661c-.595.332-1.55.413-1.744.42H.751a.75.75 0 0 0-.75.748a11.4 11.4 0 0 0 .692 4.062c.545 1.428 1.355 2.48 2.41 3.124c1.18.723 3.1 1.137 5.275 1.137a15.7 15.7 0 0 0 2.93-.266a12.3 12.3 0 0 0 3.823-1.389a10.5 10.5 0 0 0 2.61-2.136c1.252-1.418 1.998-2.997 2.553-4.4h.221c1.372 0 2.215-.549 2.68-1.009c.309-.293.55-.65.707-1.046l.098-.288Z"/>
    </symbol>

    <!-- Icon Close -->
    <symbol id="icon-close" viewBox="0 0 24 24">
        <path fill="currentColor"
            d="M6.4 19L5 17.6l5.6-5.6L5 6.4L6.4 5l5.6 5.6L17.6 5L19 6.4L13.4 12l5.6 5.6l-1.4 1.4l-5.6-5.6z" />
    </symbol>

     <!-- Icon Jour -->
     <symbol id="sun" viewBox="0 0 24 24">
     <path fill="none" stroke="currentColor" stroke-linecap="round" stroke-linejoin="round" stroke-width="1.5" d="M12 18a6 6 0 1 0 0-12a6 6 0 0 0 0 12m10-6h1M12 2V1m0 22v-1m8-2l-1-1m1-15l-1 1M4 20l1-1M4 4l1 1m-4 7h1"/>
     </symbol>

    <!-- Icon Nuit -->
    <symbol id="moon" viewBox="0 0 16 16">
    <path fill="currentColor" d="M11.47 2.18a6.49 6.49 0 0 1 3.22 5.5a6.84 6.84 0 0 1-7.08 6.55a7.4 7.4 0 0 1-3.82-1a7 7 0 0 1-1.9-1.65a9.5 9.5 0 0 0 3.34-.74a9.9 9.9 0 0 0 3.3-2.24a10 10 0 0 0 2.94-6.42M10.82.45a.66.66 0 0 0-.66.69a8.63 8.63 0 0 1-2.55 6.54a8.68 8.68 0 0 1-6.09 2.57H.66a.66.66 0 0 0-.58 1a8.45 8.45 0 0 0 7.53 4.39A8.15 8.15 0 0 0 16 7.68A7.85 7.85 0 0 0 11.07.51a.6.6 0 0 0-.25-.06"/>
    </symbol>

     <!-- Icon Menu burger -->
     <symbol id="menu-burger" viewBox="0 0 24 24">
     <path fill="currentColor" fill-rule="evenodd" d="M3.5 5a1 1 0 0 0 0 2h17a1 1 0 1 0 0-2zm-1 7a1 1 0 0 1 1-1h17a1 1 0 1 1 0 2h-17a1 1 0 0 1-1-1m0 6.001a1 1 0 0 1 1-1h17a1 1 0 1 1 0 2h-17a1 1 0 0 1-1-1" clip-rule="evenodd"/>
     </symbol>

     <!-- Icon Scroll to top -->
<symbol id="scroll-to-top" viewBox="0 0 24 24">
<g fill="currentColor"><path d="m14.829 11.948l1.414-1.414L12 6.29l-4.243 4.243l1.415 1.414L11 10.12v7.537h2V10.12z"/><path fill-rule="evenodd" d="M19.778 4.222c-4.296-4.296-11.26-4.296-15.556 0s-4.296 11.26 0 15.556s11.26 4.296 15.556 0s4.296-11.26 0-15.556m-1.414 1.414A9 9 0 1 0 5.636 18.364A9 9 0 0 0 18.364 5.636" clip-rule="evenodd"/></g>
</symbol>

    <!-- Icon Instagram -->
    <symbol id="icon-instagram" viewBox="0 0 24 24">
        <path fill="currentColor"
            d="M7.8 2h8.4C19.4 2 22 4.6 22 7.8v8.4a5.8 5.8 0 0 1-5.8 5.8H7.8C4.6 22 2 19.4 2 16.2V7.8A5.8 5.8 0 0 1 7.8 2m-.2 2A3.6 3.6 0 0 0 4 7.6v8.8C4 18.39 5.61 20 7.6 20h8.8a3.6 3.6 0 0 0 3.6-3.6V7.6C20 5.61 18.39 4 16.4 4zm9.65 1.5a1.25 1.25 0 0 1 1.25 1.25A1.25 1.25 0 0 1 17.25 8A1.25 1.25 0 0 1 16 6.75a1.25 1.25 0 0 1 1.25-1.25M12 7a5 5 0 0 1 5 5a5 5 0 0 1-5 5a5 5 0 0 1-5-5a5 5 0 0 1 5-5m0 2a3 3 0 0 0-3 3a3 3 0 0 0 3 3a3 3 0 0 0 3-3a3 3 0 0 0-3-3" />
    </symbol>

</svg>
