    <!-- Sprite pour la section "A propos" -->
    <svg xmlns="http://www.w3.org/2000/svg">
    
    <!-- Icon HTML5 -->
    <symbol id="html5" viewBox="0 0 24 24" fill="currentColor"><path d="M12 18.1778L16.6192 16.9222L17.2434 10.1444H9.02648L8.82219 7.88889H17.4477L17.6747 5.67778H6.32535L6.96091 12.3556H14.7806L14.5195 15.2222L12 15.8889L9.48045 15.2222L9.32156 13.3778H7.0517L7.38083 16.9222L12 18.1778ZM3 2H21L19.377 20L12 22L4.62295 20L3 2Z"></path>
    </symbol>

    <!-- Icon CSS3 -->
    <symbol id="css3" viewBox="0 0 20 20"><path fill="currentColor" fill-rule="evenodd" d="m1.5 0l1.594 18.056L10 20l6.906-1.944L18.5 0zm13.577 5.852L9.994 8.125l-.013.005h4.917l-.563 6.762l-4.334 1.323l-.007-.003v.003l-4.358-1.348l-.28-3.405h2.162l.14 1.764l2.316.611l.02-.006v.003l2.397-.706l.164-2.842l-2.561-.008l-4.78-.016l-.163-2.132l4.943-2.153l.288-.125H4.864l-.259-2.18h10.683z"/>
    </symbol>

    <!-- Icon JS -->
    <symbol id="javascript" viewBox="0 0 32 32"><path fill="currentColor" d="M0 0h32v32H0zm29.38 24.37c-.234-1.464-1.188-2.688-4.005-3.833c-.979-.458-2.073-.781-2.396-1.521c-.12-.438-.141-.677-.063-.938c.203-.865 1.219-1.12 2.021-.88c.521.161 1 .557 1.302 1.198c1.38-.901 1.38-.901 2.339-1.5c-.359-.557-.536-.802-.781-1.036c-.839-.943-1.958-1.422-3.776-1.38l-.943.12c-.901.219-1.76.698-2.281 1.339c-1.516 1.719-1.078 4.719.76 5.964c1.818 1.359 4.479 1.656 4.823 2.938c.318 1.563-1.161 2.063-2.625 1.88c-1.078-.24-1.677-.781-2.339-1.781l-2.438 1.401c.276.641.599.917 1.078 1.479c2.318 2.339 8.12 2.219 9.161-1.339c.036-.12.318-.943.099-2.198zm-11.979-9.662h-2.995c0 2.583-.016 5.151-.016 7.74c0 1.641.083 3.151-.182 3.615c-.443.917-1.573.802-2.089.641c-.526-.26-.797-.62-1.104-1.141c-.089-.141-.151-.26-.172-.26l-2.432 1.5c.406.839 1 1.563 1.766 2.021c1.141.682 2.672.901 4.276.542c1.042-.302 1.943-.922 2.411-1.88c.682-1.24.536-2.76.531-4.464c.016-2.74 0-5.479 0-8.24z"/>
    </symbol>

    <!-- Icon TailwindCSS -->
    <symbol id="tailwind" viewBox="0 0 24 24"><path fill="currentColor" d="M12 4.86q-4.76 0-5.95 4.76q1.785-2.38 4.165-1.785c.905.226 1.552.883 2.268 1.61C13.651 10.63 15 12 17.95 12q4.76 0 5.95-4.76q-1.785 2.38-4.165 1.785c-.906-.226-1.552-.883-2.27-1.61C16.3 6.23 14.95 4.86 12 4.86M6.05 12Q1.29 12 .1 16.76q1.785-2.38 4.165-1.785c.905.226 1.552.883 2.269 1.61C7.7 17.77 9.05 19.14 12 19.14q4.76 0 5.95-4.76q-1.785 2.38-4.165 1.785c-.906-.226-1.552-.883-2.27-1.61C10.35 13.37 9 12 6.05 12"/>
    </symbol>

    <!-- Icon React -->
    <symbol id="react" viewBox="0 0 32 32"><path fill="currentColor" d="M16 13.146c-1.573 0-2.854 1.281-2.854 2.854s1.281 2.854 2.854 2.854s2.854-1.281 2.854-2.854s-1.281-2.854-2.854-2.854m-7.99 8.526l-.63-.156C2.692 20.328 0 18.318 0 15.995s2.693-4.333 7.38-5.521l.63-.156l.177.625a31.4 31.4 0 0 0 1.818 4.771l.135.281l-.135.286a31 31 0 0 0-1.818 4.771zm-.921-9.74c-3.563 1-5.75 2.536-5.75 4.063s2.188 3.057 5.75 4.063a33 33 0 0 1 1.578-4.063a33 33 0 0 1-1.578-4.063m16.901 9.74l-.177-.625a31 31 0 0 0-1.818-4.766l-.135-.286l.135-.286a31 31 0 0 0 1.818-4.771l.177-.62l.63.156c4.688 1.188 7.38 3.198 7.38 5.521s-2.693 4.333-7.38 5.521zm-.657-5.677a32.5 32.5 0 0 1 1.578 4.063c3.568-1.005 5.75-2.536 5.75-4.063s-2.188-3.057-5.75-4.063a34 34 0 0 1-1.578 4.063M7.078 11.927l-.177-.625C5.583 6.656 5.984 3.323 8 2.161c1.979-1.141 5.151.208 8.479 3.625l.453.464l-.453.464a31.5 31.5 0 0 0-3.229 3.958l-.182.255l-.313.026a31.6 31.6 0 0 0-5.047.813zm2.531-8.838c-.359 0-.677.073-.943.229c-1.323.766-1.557 3.422-.646 7.005a33 33 0 0 1 4.313-.672a33 33 0 0 1 2.734-3.391c-2.078-2.026-4.047-3.172-5.458-3.172zm12.787 27.145q-.008 0 0 0c-1.901 0-4.344-1.427-6.875-4.031l-.453-.464l.453-.464a31.5 31.5 0 0 0 3.229-3.958l.177-.255l.313-.031a30.7 30.7 0 0 0 5.052-.813l.63-.156l.177.625c1.318 4.646.917 7.974-1.099 9.135a3.1 3.1 0 0 1-1.604.411zm-5.464-4.505c2.078 2.026 4.047 3.172 5.458 3.172h.005c.354 0 .672-.078.938-.229c1.323-.766 1.563-3.422.646-7.005a33 33 0 0 1-4.313.667a33 33 0 0 1-2.734 3.396zm7.99-13.802l-.63-.161a32 32 0 0 0-5.052-.813l-.313-.026l-.177-.255a31.5 31.5 0 0 0-3.229-3.958l-.453-.464l.453-.464c3.328-3.417 6.5-4.766 8.479-3.625c2.016 1.161 2.417 4.495 1.099 9.141zm-5.255-2.276a33 33 0 0 1 4.313.672c.917-3.583.677-6.24-.646-7.005c-1.318-.76-3.797.406-6.401 2.943a34 34 0 0 1 2.734 3.391zM9.609 30.234c-.563.01-1.12-.13-1.609-.411c-2.016-1.161-2.417-4.49-1.099-9.135l.177-.625l.63.156c1.542.391 3.24.661 5.047.813l.313.031l.177.255a31.5 31.5 0 0 0 3.229 3.958l.453.464l-.453.464c-2.526 2.604-4.969 4.031-6.865 4.031zm-1.588-8.567c-.917 3.583-.677 6.24.646 7.005c1.318.75 3.792-.406 6.401-2.943a33 33 0 0 1-2.734-3.396a32.5 32.5 0 0 1-4.313-.667zm7.979.838c-1.099 0-2.224-.047-3.354-.141l-.313-.026l-.182-.26a40 40 0 0 1-1.797-2.828a40 40 0 0 1-1.557-2.969l-.135-.286l.135-.286a40.5 40.5 0 0 1 3.354-5.797l.182-.26l.313-.026a40 40 0 0 1 6.708 0l.313.026l.182.26a40 40 0 0 1 3.354 5.797l.135.286l-.135.286a39.6 39.6 0 0 1-3.354 5.797l-.182.26l-.313.026a41 41 0 0 1-3.354.141m-2.927-1.448c1.969.151 3.885.151 5.859 0a39 39 0 0 0 2.927-5.063a37.5 37.5 0 0 0-2.932-5.063a38 38 0 0 0-5.854 0a37 37 0 0 0-2.932 5.063a38.6 38.6 0 0 0 2.932 5.063"/></symbol>

    <!-- Icon Typescript -->
    <symbol id="typescript" viewBox="0 0 32 32"><path fill="currentColor" d="M0 16v16h32V0H0zm25.786-1.276a4 4 0 0 1 2.005 1.156c.292.312.729.885.766 1.026c.01.042-1.38.974-2.224 1.495c-.031.021-.156-.109-.292-.313c-.411-.599-.844-.859-1.505-.906c-.969-.063-1.594.443-1.589 1.292a1.26 1.26 0 0 0 .135.599c.214.443.615.708 1.854 1.245c2.292.984 3.271 1.635 3.88 2.557c.682 1.031.833 2.677.375 3.906c-.51 1.328-1.771 2.234-3.542 2.531c-.547.099-1.849.083-2.438-.026c-1.286-.229-2.505-.865-3.255-1.698c-.297-.323-.87-1.172-.833-1.229c.016-.021.146-.104.292-.188l1.188-.688l.922-.536l.193.286c.271.411.859.974 1.214 1.161c1.021.542 2.422.464 3.115-.156c.281-.234.438-.594.417-.958c0-.37-.047-.536-.24-.813c-.25-.354-.755-.656-2.198-1.281c-1.651-.714-2.365-1.151-3.01-1.854a4.2 4.2 0 0 1-.88-1.599c-.12-.453-.151-1.589-.057-2.042c.339-1.599 1.547-2.708 3.281-3.036c.563-.109 1.875-.068 2.427.068zm-7.51 1.339l.01 1.307h-4.167v11.839h-2.948V17.37H7.01v-1.281c0-.714.016-1.307.036-1.323c.016-.021 2.547-.031 5.62-.026l5.594.016z"/>
    </symbol>

    <!-- Icon mobile-first -->
    <symbol id="mobile-first" viewBox="0 0 32 32"><g fill="currentColor" stroke-width="0.5" stroke="currentColor"><path d="M1.5 32h14a.5.5 0 0 0 0-1h-14a.5.5 0 0 1-.5-.5v-29a.5.5 0 0 1 .5-.5h21a.5.5 0 0 1 .5.5v5a.5.5 0 0 0 1 0v-5c0-.827-.673-1.5-1.5-1.5h-21C.673 0 0 .673 0 1.5v29c0 .827.673 1.5 1.5 1.5"/><path d="M18 10.5v20c0 .827.673 1.5 1.5 1.5h11c.827 0 1.5-.673 1.5-1.5v-20c0-.827-.673-1.5-1.5-1.5h-11c-.827 0-1.5.673-1.5 1.5m13 0v20a.5.5 0 0 1-.5.5h-11a.5.5 0 0 1-.5-.5v-20a.5.5 0 0 1 .5-.5h11a.5.5 0 0 1 .5.5"/><circle cx="12" cy="28" r="1"/><circle cx="25" cy="28" r="1"/></g>
    </symbol>

    <!-- Icon Référencement -->
    <symbol id="seo" viewBox="0 0 24 24"><g fill="none" stroke="currentColor" stroke-linecap="round" stroke-width="1"><path d="m5 20l2.413-2.413m0 0a4.444 4.444 0 1 0 6.285-6.285a4.444 4.444 0 0 0-6.285 6.285Z"/><path d="M3 15.188a7.4 7.4 0 0 1-1-3.726C2 7.341 5.358 4 9.5 4h5c4.142 0 7.5 3.341 7.5 7.462c0 3.25-2.087 6.014-5 7.038"/></g>
    </symbol>

    <!-- Icon Accessibilité et UX -->
    <symbol id="ux" viewBox="0 0 24 24"><g fill="none"><path d="m12.593 23.258l-.011.002l-.071.035l-.02.004l-.014-.004l-.071-.035q-.016-.005-.024.005l-.004.01l-.017.428l.005.02l.01.013l.104.074l.015.004l.012-.004l.104-.074l.012-.016l.004-.017l-.017-.427q-.004-.016-.017-.018m.265-.113l-.013.002l-.185.093l-.01.01l-.003.011l.018.43l.005.012l.008.007l.201.093q.019.005.029-.008l.004-.014l-.034-.614q-.005-.018-.02-.022m-.715.002a.02.02 0 0 0-.027.006l-.006.014l-.034.614q.001.018.017.024l.015-.002l.201-.093l.01-.008l.004-.011l.017-.43l-.003-.012l-.01-.01z"/><path fill="currentColor" d="M12 4c2.787 0 5.263 1.257 7.026 2.813c.885.781 1.614 1.658 2.128 2.531c.505.857.846 1.786.846 2.656s-.34 1.799-.846 2.656c-.514.873-1.243 1.75-2.128 2.531C17.263 18.743 14.786 20 12 20c-2.787 0-5.263-1.257-7.026-2.813c-.885-.781-1.614-1.658-2.128-2.531C2.34 13.799 2 12.87 2 12s.34-1.799.846-2.656c.514-.873 1.243-1.75 2.128-2.531C6.737 5.257 9.214 4 12 4m0 2c-2.184 0-4.208.993-5.702 2.312c-.744.656-1.332 1.373-1.729 2.047C4.163 11.049 4 11.62 4 12s.163.951.569 1.641c.397.674.985 1.39 1.729 2.047C7.792 17.007 9.816 18 12 18s4.208-.993 5.702-2.312c.744-.657 1.332-1.373 1.729-2.047c.406-.69.569-1.261.569-1.641s-.163-.951-.569-1.641c-.397-.674-.985-1.39-1.729-2.047C16.208 6.993 14.184 6 12 6m0 3q.132 0 .261.011a2 2 0 0 0 2.728 2.728A3 3 0 1 1 12 9"/></g>
    </symbol>

    <!-- Icon Eco conception -->
    <symbol id="eco-conception" viewBox="0 0 24 24"><g fill="none" stroke="currentColor" stroke-linecap="round" stroke-linejoin="round" stroke-width="1"><path d="M18 10s-6 4-6 11m-2.651-9.817a4.114 4.114 0 0 1-5.37-.388C1.555 8.372 2.039 3.04 2.039 3.04s5.333-.485 7.756 1.939a4.1 4.1 0 0 1 1.16 3.521"/><path d="M14.964 12.818a3.656 3.656 0 0 1 .107-5.06c2.154-2.154 6.894-1.723 6.894-1.723s.43 4.74-1.724 6.894a3.65 3.65 0 0 1-2.741 1.068M6 7s6 5 6 14"/></g>
    </symbol>

    <!-- Icon Node.JS -->
    <symbol id="nodejs" viewBox="0 0 24 24"><path fill="currentColor" d="M11.174 22.555c.256.139.531.218.826.218s.59-.08.826-.178l7.848-4.572c.511-.297.826-.851.826-1.445V7.454c0-.593-.315-1.148-.826-1.444l-7.848-4.572a1.75 1.75 0 0 0-1.652 0L3.326 6.01A1.67 1.67 0 0 0 2.5 7.454v9.124c0 .594.315 1.148.826 1.445l2.065 1.188c1.003.494 1.358.494 1.81.494c1.475 0 2.32-.91 2.32-2.474V8.226a.24.24 0 0 0-.235-.237H8.283a.24.24 0 0 0-.236.237v9.005c0 .693-.728 1.386-1.889.792l-2.143-1.247c-.08-.04-.118-.138-.118-.218V7.435c0-.08.039-.179.118-.218l7.848-4.552c.058-.04.157-.04.235 0l7.849 4.552c.078.04.118.119.118.218v9.123c0 .1-.04.178-.118.218l-7.849 4.572c-.059.04-.157.04-.236 0L9.857 20.14c-.059-.04-.138-.06-.197-.02c-.55.317-.649.356-1.18.534c-.118.04-.314.119.079.337zm-.885-8.985c0 1.346.708 2.929 4.15 2.929c2.478 0 3.914-.99 3.914-2.731c0-1.702-1.141-2.158-3.56-2.474c-2.44-.317-2.695-.495-2.695-1.069c0-.475.217-1.108 2.026-1.108c1.613 0 2.222.356 2.459 1.444a.23.23 0 0 0 .216.179h1.042c.06 0 .118-.04.158-.08a.3.3 0 0 0 .059-.178c-.157-1.9-1.396-2.77-3.914-2.77c-2.242 0-3.58.95-3.58 2.553c0 1.721 1.338 2.196 3.481 2.414c2.577.258 2.774.634 2.774 1.148c0 .89-.708 1.267-2.36 1.267c-2.085 0-2.538-.515-2.695-1.564c0-.118-.098-.198-.216-.198h-1.023a.24.24 0 0 0-.236.238"/>
    </symbol>

    <!-- Icon SQL -->
    <symbol id="sql" viewBox="0 0 32 32"><path fill="currentColor" d="M8.562 15.256A21.2 21.2 0 0 0 16 16.449a21.2 21.2 0 0 0 7.438-1.194c1.864-.727 2.525-1.535 2.525-2V9.7a10.4 10.4 0 0 1-2.084 1.076A22.3 22.3 0 0 1 16 12.078a22.4 22.4 0 0 1-7.879-1.3A10.3 10.3 0 0 1 6.037 9.7v3.55c0 .474.663 1.278 2.525 2.006m0 6.705a15.6 15.6 0 0 0 2.6.741a25 25 0 0 0 4.838.453a25 25 0 0 0 4.838-.452a15.6 15.6 0 0 0 2.6-.741c1.864-.727 2.525-1.535 2.525-2v-3.39a10.7 10.7 0 0 1-1.692.825A23.5 23.5 0 0 1 16 18.74a23.5 23.5 0 0 1-8.271-1.348a11 11 0 0 1-1.692-.825v3.393c0 .466.663 1.271 2.525 2.001M16 30c5.5 0 9.963-1.744 9.963-3.894v-2.837a10.5 10.5 0 0 1-1.535.762l-.157.063A23.5 23.5 0 0 1 16 25.445a23.4 23.4 0 0 1-8.271-1.351l-.157-.063a10.5 10.5 0 0 1-1.535-.762v2.837C6.037 28.256 10.5 30 16 30"/><ellipse cx="16" cy="5.894" fill="currentColor" rx="9.963" ry="3.894"/>
    </symbol>

    <!-- Icon PostgreSQL -->
    <symbol id="postgresql" viewBox="0 0 24 24"><path fill="currentColor" d="M16.805 1a10 10 0 0 0-2.603.37l-.06.018a10.6 10.6 0 0 0-1.615-.151c-1.113-.019-2.07.243-2.84.68c-.76-.256-2.336-.697-3.997-.609c-1.157.061-2.419.402-3.354 1.36c-.933.958-1.426 2.44-1.322 4.457c.028.557.191 1.464.463 2.64c.27 1.175.652 2.55 1.127 3.805s.996 2.384 1.81 3.15c.406.384.965.707 1.624.68c.463-.018.882-.215 1.243-.506c.176.225.364.323.535.414c.215.114.425.192.642.244a4.6 4.6 0 0 0 1.84.091c.267-.043.548-.127.828-.247c.01.302.022.598.035.898c.038.95.063 1.827.357 2.596c.047.126.176.773.687 1.344c.51.572 1.51.928 2.648.692c.803-.167 1.825-.468 2.503-1.404c.67-.926.973-2.254 1.033-4.409c.015-.116.033-.215.052-.308l.16.014h.018c.857.038 1.787-.08 2.564-.43c.688-.31 1.208-.622 1.587-1.177c.095-.137.199-.303.227-.59c.028-.285-.14-.733-.421-.939c-.563-.414-.916-.257-1.295-.18q-.56.12-1.136.133c1.093-1.784 1.876-3.68 2.323-5.358c.264-.99.413-1.903.425-2.701s-.055-1.505-.548-2.117c-1.541-1.91-3.708-2.438-5.384-2.456q-.078-.002-.156-.001zm-.044.587c1.585-.015 3.611.417 5.065 2.22c.327.405.424.997.413 1.727c-.012.729-.151 1.601-.405 2.557c-.493 1.852-1.425 4.01-2.738 5.948a.7.7 0 0 0 .15.079c.274.11.898.204 2.145-.044c.313-.065.543-.108.781.068a.48.48 0 0 1 .173.39a.64.64 0 0 1-.123.308c-.24.351-.716.684-1.326.958c-.539.244-1.313.371-1.999.379c-.344.003-.661-.023-.93-.104l-.018-.006c-.104.971-.343 2.89-.498 3.765c-.125.706-.343 1.267-.76 1.687c-.416.42-1.004.673-1.796.838c-.981.204-1.696-.016-2.157-.393c-.46-.375-.671-.874-.798-1.18c-.087-.21-.132-.483-.176-.848a18 18 0 0 1-.097-1.315a46 46 0 0 1-.028-2.312c-.41.363-.92.605-1.467.696c-.65.107-1.232.002-1.579-.082a2.2 2.2 0 0 1-.49-.185c-.162-.083-.315-.177-.417-.363a.5.5 0 0 1-.054-.35a.56.56 0 0 1 .206-.303c.188-.148.435-.23.808-.306c.68-.135.917-.228 1.061-.339c.123-.095.262-.287.508-.57l-.003-.037a2.9 2.9 0 0 1-1.257-.328c-.141.144-.865.887-1.748 1.917c-.371.431-.781.678-1.214.696s-.824-.194-1.156-.506c-.665-.626-1.195-1.703-1.657-2.92c-.46-1.218-.836-2.574-1.102-3.729c-.268-1.155-.426-2.086-.448-2.535c-.1-1.909.36-3.195 1.15-4.006S4.652 1.94 5.708 1.882c1.894-.106 3.693.535 4.057.673c.701-.462 1.604-.75 2.733-.732a7.2 7.2 0 0 1 1.588.2l.019-.008q.344-.117.698-.196a9.4 9.4 0 0 1 1.957-.23zm.143.614h-.137a8.5 8.5 0 0 0-1.61.176a7.05 7.05 0 0 1 2.692 2.062a7.7 7.7 0 0 1 1.07 1.76c.104.242.174.447.213.605c.02.08.034.147.038.217a.4.4 0 0 1-.011.132l-.006.012c.029.803-.176 1.347-.201 2.113c-.019.556.127 1.209.163 1.92c.034.67-.049 1.405-.497 2.127q.056.066.108.132c1.185-1.81 2.04-3.814 2.495-5.521c.243-.92.373-1.753.384-2.413c.01-.66-.117-1.139-.279-1.338c-1.268-1.573-2.983-1.974-4.422-1.985m-4.525.235c-1.117.002-1.919.33-2.526.82c-.627.507-1.047 1.2-1.323 1.911a7.9 7.9 0 0 0-.485 2.213l.013-.007c.337-.184.78-.367 1.254-.473c.475-.106.986-.139 1.449.035s.846.584.985 1.206c.665 2.986-.207 4.096-.529 4.933a9 9 0 0 0-.312.929q.06-.017.121-.024a1.06 1.06 0 0 1 .51.1c.324.13.546.402.666.714q.047.124.067.26q.02.057.019.117a49 49 0 0 0 .012 3.426c.022.494.054.928.095 1.271c.04.342.098.602.135.69c.12.294.297.678.617.939s.777.434 1.614.26c.726-.151 1.174-.36 1.474-.663c.298-.301.477-.72.591-1.363c.171-.963.515-3.754.556-4.28c-.018-.395.042-.7.172-.932c.135-.238.343-.384.522-.463c.09-.04.174-.066.243-.085a6 6 0 0 0-.23-.298a4 4 0 0 1-.629-1.007a8 8 0 0 0-.243-.443c-.125-.22-.284-.495-.45-.804c-.333-.619-.695-1.369-.883-2.1c-.187-.729-.215-1.484.265-2.017c.426-.473 1.172-.669 2.293-.559c-.033-.096-.053-.176-.109-.304a7 7 0 0 0-.983-1.617c-.95-1.178-2.487-2.346-4.863-2.384h-.108zm-6.276.047q-.18 0-.36.01c-.954.053-1.856.322-2.501.986c-.647.663-1.072 1.751-.98 3.553c.019.34.172 1.296.434 2.43c.262 1.136.634 2.471 1.08 3.65c.446 1.18.988 2.207 1.502 2.693c.259.243.484.341.688.333c.205-.01.451-.124.753-.475a40 40 0 0 1 1.71-1.877a3.2 3.2 0 0 1-.932-1.307a3.1 3.1 0 0 1-.17-1.58c.097-.678.11-1.312.099-1.812c-.012-.488-.048-.812-.048-1.015v-.028a8.8 8.8 0 0 1 .559-3.095c.264-.682.658-1.375 1.249-1.936c-.58-.185-1.61-.467-2.725-.52a7 7 0 0 0-.36-.01zm11.714 4.842c-.641.008-1.001.169-1.19.379c-.268.298-.293.82-.127 1.464s.507 1.365.829 1.963c.16.3.316.57.442.788c.127.22.22.376.276.51q.08.181.168.331c.248-.509.293-1.008.267-1.529c-.033-.644-.187-1.303-.164-1.97c.025-.78.184-1.289.198-1.892a6 6 0 0 0-.699-.044m-7.78.105a2.7 2.7 0 0 0-.582.068a4.5 4.5 0 0 0-1.09.412q-.173.09-.33.209l-.02.018c.006.134.033.459.045.936c.01.523-.002 1.19-.106 1.91c-.226 1.568.946 2.866 2.324 2.868c.08-.322.213-.648.345-.992c.384-1.003 1.139-1.734.503-4.589c-.104-.467-.31-.656-.594-.763a1.4 1.4 0 0 0-.495-.077m7.48.187h.048q.094.003.17.02a.4.4 0 0 1 .13.051a.15.15 0 0 1 .071.1v.008a.2.2 0 0 1-.034.124a.6.6 0 0 1-.104.137a.65.65 0 0 1-.364.195a.57.57 0 0 1-.388-.095a.6.6 0 0 1-.123-.108a.24.24 0 0 1-.06-.116a.15.15 0 0 1 .04-.118a.4.4 0 0 1 .111-.082a1.3 1.3 0 0 1 .504-.118zm-7.388.154q.075 0 .157.012c.144.02.273.057.371.112q.072.037.126.097q.028.033.042.073t.009.083a.27.27 0 0 1-.071.141a.6.6 0 0 1-.135.12a.62.62 0 0 1-.424.103a.7.7 0 0 1-.396-.209a.7.7 0 0 1-.112-.15a.25.25 0 0 1-.039-.162c.014-.1.099-.15.18-.18a.8.8 0 0 1 .29-.036zm8.56 6.732h-.003c-.139.05-.253.07-.35.11a.42.42 0 0 0-.225.197c-.06.105-.11.292-.095.61a.5.5 0 0 0 .14.064c.161.048.432.08.735.075c.602-.007 1.344-.143 1.738-.321c.323-.146.623-.336.891-.564c-1.317.264-2.06.194-2.517.011a1.3 1.3 0 0 1-.314-.183m-7.588.086h-.02c-.05.004-.123.02-.263.172c-.33.358-.444.582-.716.792c-.27.21-.623.321-1.327.461c-.223.044-.35.093-.436.132c.028.022.025.028.066.049c.103.055.236.103.342.13c.303.073.8.159 1.319.073s1.058-.327 1.518-.953c.08-.108.088-.268.023-.44c-.067-.17-.211-.318-.313-.36a.6.6 0 0 0-.193-.054z"/>
    </symbol>

    <!-- Icon AdonisJS6 -->
    <symbol id="adonis" viewBox="0 0 24 24"><path fill="currentColor" d="M12 21c-7.259 0-9-1.741-9-9s1.741-9 9-9s9 1.741 9 9s-1.741 9-9 9M9.452 7.454L6.63 13.87c-.128.311-.238.715-.238 1.063c0 1.595 1.118 2.713 2.713 2.713c.522 0 .956-.138 1.398-.277c.456-.145.92-.292 1.498-.292c.584 0 1.037.146 1.485.29c.437.14.868.279 1.411.279c1.595 0 2.713-1.119 2.713-2.713c0-.348-.11-.752-.238-1.063l-2.823-6.416C14.07 6.373 13.155 5.786 12 5.786s-2.071.587-2.548 1.668m-.238 7.424L12 8.572l2.75 6.306c-.789-.385-1.778-.568-2.75-.568c-1.008 0-1.961.183-2.786.568"/>
    </symbol>

    <!-- Icon Sécurité -->
    <symbol id="security" viewBox="0 0 32 32"><path fill="currentColor" d="M14 16.59L11.41 14L10 15.41l4 4l8-8L20.59 10z" stroke-width="0.5" stroke="currentColor"/><path fill="currentColor" d="m16 30l-6.176-3.293A10.98 10.98 0 0 1 4 17V4a2 2 0 0 1 2-2h20a2 2 0 0 1 2 2v13a10.98 10.98 0 0 1-5.824 9.707ZM6 4v13a8.99 8.99 0 0 0 4.766 7.942L16 27.733l5.234-2.79A8.99 8.99 0 0 0 26 17V4Z" stroke-width="0.5" stroke="currentColor" stroke-linecap="round"/>
    </symbol>

    <!-- Icon VS Code -->
    <symbol id="vscode" viewBox="0 0 32 32"><path fill="currentColor" d="M30.865 3.448L24.282.281a1.99 1.99 0 0 0-2.276.385L9.397 12.171L3.902 8.004a1.33 1.33 0 0 0-1.703.073L.439 9.681a1.33 1.33 0 0 0-.005 1.969L5.2 15.999L.434 20.348a1.33 1.33 0 0 0 .005 1.969l1.76 1.604a1.33 1.33 0 0 0 1.703.073l5.495-4.172l12.615 11.51a1.98 1.98 0 0 0 2.271.385l6.589-3.172a1.99 1.99 0 0 0 1.13-1.802V5.248c0-.766-.443-1.469-1.135-1.802zm-6.86 19.818L14.432 16l9.573-7.266z"/>
    </symbol>

    <!-- Icon Git -->
    <symbol id="git" viewBox="0 0 24 24"><path fill="currentColor" d="m21.62 11.108l-8.731-8.729a1.29 1.29 0 0 0-1.823 0L9.257 4.19l2.299 2.3a1.532 1.532 0 0 1 1.939 1.95l2.214 2.217a1.53 1.53 0 0 1 1.583 2.531c-.599.6-1.566.6-2.166 0a1.54 1.54 0 0 1-.337-1.662l-2.074-2.063V14.9c.146.071.286.169.407.29a1.537 1.537 0 0 1 0 2.166a1.536 1.536 0 0 1-2.174 0a1.53 1.53 0 0 1 0-2.164q.23-.226.504-.339v-5.49a1.53 1.53 0 0 1-.83-2.008l-2.26-2.271l-5.987 5.982c-.5.504-.5 1.32 0 1.824l8.731 8.729a1.286 1.286 0 0 0 1.821 0l8.69-8.689a1.284 1.284 0 0 0 .003-1.822"/>
    </symbol>

    <!-- Icon Github -->
    <symbol id="github" viewBox="0 0 24 24"><path fill="currentColor" d="M12 .297c-6.63 0-12 5.373-12 12c0 5.303 3.438 9.8 8.205 11.385c.6.113.82-.258.82-.577c0-.285-.01-1.04-.015-2.04c-3.338.724-4.042-1.61-4.042-1.61C4.422 18.07 3.633 17.7 3.633 17.7c-1.087-.744.084-.729.084-.729c1.205.084 1.838 1.236 1.838 1.236c1.07 1.835 2.809 1.305 3.495.998c.108-.776.417-1.305.76-1.605c-2.665-.3-5.466-1.332-5.466-5.93c0-1.31.465-2.38 1.235-3.22c-.135-.303-.54-1.523.105-3.176c0 0 1.005-.322 3.3 1.23c.96-.267 1.98-.399 3-.405c1.02.006 2.04.138 3 .405c2.28-1.552 3.285-1.23 3.285-1.23c.645 1.653.24 2.873.12 3.176c.765.84 1.23 1.91 1.23 3.22c0 4.61-2.805 5.625-5.475 5.92c.42.36.81 1.096.81 2.22c0 1.606-.015 2.896-.015 3.286c0 .315.21.69.825.57C20.565 22.092 24 17.592 24 12.297c0-6.627-5.373-12-12-12"/>
    </symbol>

    <!-- Icon Gitlab -->
    <symbol id="gitlab" viewBox="0 0 24 24"><path fill="currentColor" d="m23.6 9.593l-.033-.086L20.3.98a.85.85 0 0 0-.336-.405a.875.875 0 0 0-1 .054a.9.9 0 0 0-.29.44L16.47 7.818H7.537L5.333 1.07a.86.86 0 0 0-.29-.441a.875.875 0 0 0-1-.054a.86.86 0 0 0-.336.405L.433 9.502l-.032.086a6.066 6.066 0 0 0 2.012 7.01l.01.009l.03.021l4.977 3.727l2.462 1.863l1.5 1.132a1.01 1.01 0 0 0 1.22 0l1.499-1.132l2.461-1.863l5.006-3.75l.013-.01a6.07 6.07 0 0 0 2.01-7.002"/>
    </symbol>

    <!-- Icon Vite -->
    <symbol id="vite" viewBox="0 0 32 32"><path fill="currentColor" d="M29.313 12h-6.664a1.427 1.427 0 0 1-1.1-2.24l4.398-6.676A.703.703 0 0 0 25.397 2H8.428a.62.62 0 0 0-.55.289l-5.77 8.627A.703.703 0 0 0 2.658 12h8.175a1.427 1.427 0 0 1 1.099 2.24l-4.48 6.676A.702.702 0 0 0 8 22l6.695.002A1.34 1.34 0 0 1 16 23.375v5.934a.652.652 0 0 0 1.168.433l12.694-16.586a.725.725 0 0 0-.55-1.156"/></symbol>

    <!-- Icon Terminal (Laragon) -->
    <symbol id="laragon" viewBox="0 0 24 24"><path fill="currentColor" d="M12.843.979c-2.12-.096-3.477 1.439-3.477 1.439C2.52 2.5.791 8.429.75 8.552l-.248.74c-2.268 8.78 3.889 12.22 3.889 12.22c.188.091.375-.066.375-.066c.5-.31.252-.53.252-.53c-1.43-1.742-1.595-5.864-1.596-5.899c-.64-.532-1.248-1.318-1.111-2.342c0 0 .084-.51.584-.197c0 0 1.186.644 2.123.83c-.001 0 .476.043.5.177c0 0 .374 1.752-.78 2.32c.745.437 1.465.85 1.465.85c.124 1.263.81 5.32.81 5.32c.064.797.906.954.906.954c.483.172 4.12.062 4.12.062c1.014-.044 1.062-.953 1.062-.953c.015-.545.03-3.62.03-3.62c.096-.575.766-.5.766-.5c.703-.03.688.454.688.454c-.017.515.045 3.496.045 3.496c.03.858.781 1.125.781 1.125c.488 0 .828-.004 1.365 0c.252.002 1.473 0 1.473 0c.55-.307 1.377-.969 1.377-.969c5.868-4.91 4.135-11.9 4.135-11.9C22.93 5.88 17.792 5.1 17.792 5.1c-.582-1.811-1.643-2.682-1.643-2.682c-1.222-1.015-2.343-1.396-3.306-1.44zm5.006 4.273s1.845 3.08-1.727 7.86c.001.001-2.94 4.116-8.232 1.223c1.084.523 5.536 2.312 8.375-1.98c0 0 2.632-3.437 1.584-7.103M6.703 8.868s1.296.036 1.341 1.82c0 0-1.02-2.668-3.271-.2c0 0 .404-1.729 1.93-1.62"/>
    </symbol>

    <!-- Icon méthode Agile -->
    <symbol id="agile" viewBox="0 0 20 20"><path fill="currentColor" d="M10 6.5a3 3 0 1 0 0 6h6.44l-.72-.72a.75.75 0 1 1 1.06-1.06l2 2a.75.75 0 0 1 0 1.06l-2 2a.75.75 0 1 1-1.06-1.06l.72-.72H10a4.5 4.5 0 1 1 4.032-2.5h-1.796A3 3 0 0 0 10 6.5m-7.25 6h2.64A5.5 5.5 0 0 0 6.836 14H2.75a.75.75 0 0 1 0-1.5"/>
    </symbol>

    <!-- Icon méthode Merise et UML -->
    <symbol id="uml" viewBox="0 0 48 48"><path fill="none" stroke="currentColor" stroke-linecap="round" stroke-linejoin="round" d="M5.5 9.2h11.1m0 12.955V5.5H5.5v16.645zM5.5 15.678h11.1m-5.545 13.867h11.1m0 12.955V25.845h-11.1l-.01 16.655zm-11.1-6.478h11.1m8.323-16.644H42.5m0 12.944V15.678H30.478v16.644zm-12.022-6.477H42.5m-25.9-6.928q6.478.771 13.878 3.7m-8.323 10.167q3.7-2.617 8.323-3.7" stroke-width="1.5"/>
    </symbol>

    <!-- Icon appliquée -->
    <symbol id="target" viewBox="0 0 20 20"><path fill="currentColor" d="M17.603 7.519a7.999 7.999 0 1 1-5.117-5.126L11.439 3.44q-.086.086-.158.185a6.5 6.5 0 1 0 5.088 5.098a1.5 1.5 0 0 0 .192-.162zM14.898 9q.1.486.1 1A5 5 0 1 1 11 5.1v1.546A3.5 3.5 0 1 0 13.353 9zm-4.9 2.5a1.5 1.5 0 0 0 1.45-1.887L13.03 8.03l.03-.03h2.44a.5.5 0 0 0 .354-.146l2-2A.5.5 0 0 0 17.5 5H15V2.5a.5.5 0 0 0-.853-.354l-2 2A.5.5 0 0 0 12 4.5v2.44l-.03.03l-1.582 1.581a1.5 1.5 0 0 0-1.89 1.45a1.5 1.5 0 0 0 1.5 1.5"/>
    </symbol>

    <!-- Icon curieuse -->
    <symbol id="question" viewBox="0 0 26 26"><path fill="currentColor" d="M13 0C5.925 0 0 5.08 0 11.5c0 3.03 1.359 5.748 3.5 7.781a6.7 6.7 0 0 1-1.094 1.875A16.5 16.5 0 0 1 .375 23.22A1 1 0 0 0 1 25c2.215 0 3.808-.025 5.25-.406c1.29-.342 2.399-1.058 3.531-2.063c1.03.247 2.093.469 3.219.469c7.075 0 13-5.08 13-11.5S20.075 0 13 0m0 2c6.125 0 11 4.32 11 9.5S19.125 21 13 21c-1.089 0-2.22-.188-3.25-.469a1 1 0 0 0-.938.25c-1.125 1.079-1.954 1.582-3.062 1.875c-.51.135-1.494.103-2.188.157c.14-.158.271-.242.407-.407c.786-.96 1.503-1.975 1.719-3.125a1 1 0 0 0-.344-.937C3.249 16.614 2 14.189 2 11.5C2 6.32 6.875 2 13 2m-1.906 3.906a1 1 0 0 0-.469.25l-1.5 1.407l1.344 1.468l1.187-1.125h2.406L15 8.97v1.469l-2.563 1.718A1 1 0 0 0 12 13v2h2v-1.438l2.563-1.718A1 1 0 0 0 17 11V8.594a1 1 0 0 0-.25-.656l-1.5-1.688a1 1 0 0 0-.75-.344h-3.188a1 1 0 0 0-.218 0M12 16v2h2v-2z"/>
    </symbol>

    <!-- Icon créative -->
    <symbol id="bulb" viewBox="0 0 24 24"><path fill="currentColor" d="M4 11a1 1 0 0 1 .117 1.993L4 13H3a1 1 0 0 1-.117-1.993L3 11zm8-9a1 1 0 0 1 .993.883L13 3v1a1 1 0 0 1-1.993.117L11 4V3a1 1 0 0 1 1-1m9 9a1 1 0 0 1 .117 1.993L21 13h-1a1 1 0 0 1-.117-1.993L20 11zM4.893 4.893a1 1 0 0 1 1.32-.083l.094.083l.7.7a1 1 0 0 1-1.32 1.497l-.094-.083l-.7-.7a1 1 0 0 1 0-1.414m12.8 0a1 1 0 0 1 1.497 1.32l-.083.094l-.7.7a1 1 0 0 1-1.497-1.32l.083-.094zM14 18a1 1 0 0 1 1 1a3 3 0 0 1-6 0a1 1 0 0 1 .883-.993L10 18zM12 6a6 6 0 0 1 3.6 10.8a1 1 0 0 1-.471.192L15 17H9a1 1 0 0 1-.6-.2A6 6 0 0 1 12 6"/>
    </symbol>

    <!-- Icon facultés rédactionnelles -->
    <symbol id="pen" viewBox="0 0 24 24"><g fill="none"><path d="m12.593 23.258l-.011.002l-.071.035l-.02.004l-.014-.004l-.071-.035q-.016-.005-.024.005l-.004.01l-.017.428l.005.02l.01.013l.104.074l.015.004l.012-.004l.104-.074l.012-.016l.004-.017l-.017-.427q-.004-.016-.017-.018m.265-.113l-.013.002l-.185.093l-.01.01l-.003.011l.018.43l.005.012l.008.007l.201.093q.019.005.029-.008l.004-.014l-.034-.614q-.005-.018-.02-.022m-.715.002a.02.02 0 0 0-.027.006l-.006.014l-.034.614q.001.018.017.024l.015-.002l.201-.093l.01-.008l.004-.011l.017-.43l-.003-.012l-.01-.01z"/><path fill="currentColor" d="m14.295 4.98l4.724 4.725a2 2 0 0 1 .443 2.157l-2.365 5.913a2 2 0 0 1-1.605 1.24l-5.079.635q-.196.023-.41.056l-.444.072l-.232.042l-.723.14l-.495.105l-.745.168l-.955.228l-1.552.396l-.646.174a1.01 1.01 0 0 1-1.265-1.134l.034-.146l.295-1.112l.264-1.048l.228-.955l.167-.745l.105-.496l.141-.722l.08-.457l.064-.428l.66-5.28a2 2 0 0 1 1.241-1.605l5.913-2.365a2 2 0 0 1 2.157.443Zm-3.71 5.605a2 2 0 0 0-.507 1.968a1 1 0 0 0-.2.154L5.82 16.765a.2.2 0 0 0-.053.098l-.089.385l-.178.743l-.086.351a.2.2 0 0 0 .244.244l.717-.175l.763-.178a.2.2 0 0 0 .097-.054l4.058-4.058a1 1 0 0 0 .154-.199a2 2 0 1 0-.861-3.337Zm4.658-7.484a1 1 0 0 1 1.32-.084l.094.084L20.9 7.343a1 1 0 0 1-1.32 1.498l-.095-.084l-4.242-4.242a1 1 0 0 1 0-1.414"/></g>
    </symbol>

    <!-- Icon sens de l'organisation -->
    <symbol id="to-do" viewBox="0 0 24 24"><g fill="none" stroke="currentColor" stroke-linecap="round" stroke-linejoin="round" stroke-width="1.5"><path d="M13 5h8m-8 7h8m-8 7h8M3 17l2 2l4-4"/><rect width="6" height="6" x="3" y="4" rx="1"/></g>
    </symbol>

    <!-- Icon travail en équipe -->
    <symbol id="team" viewBox="0 0 24 24"><path fill="currentColor" d="M1.72 9.95a2.45 2.45 0 1 0 4.9 0a2.45 2.45 0 1 0-4.9 0m15.66 0a2.45 2.45 0 1 0 4.9 0a2.45 2.45 0 1 0-4.9 0M11.5 4.5a1 1 0 0 1-1-1v-2a1 1 0 0 1 2 0v2a1 1 0 0 1-1 1m5.87-1.62a1 1 0 0 0-1.41 0l-1.42 1.41a1 1 0 0 0 0 1.42a1 1 0 0 0 1.42 0l1.41-1.42a1 1 0 0 0 0-1.41M7.75 6A1 1 0 0 1 7 5.71L5.63 4.29A1 1 0 0 1 7 2.88l1.46 1.41a1 1 0 0 1 0 1.42a1 1 0 0 1-.71.29"/><path fill="currentColor" d="M16.4 23.5v-6.73a6.35 6.35 0 0 1-5.4-4.32l-.84-2.53A1.46 1.46 0 0 1 11.29 8a1.51 1.51 0 0 1 1.64 1.06l.82 2.45A3.41 3.41 0 0 0 17 13.86h4.3a2 2 0 0 1 2 2v7.64ZM9.54 12.92v-.13A3.4 3.4 0 0 1 7 13.86H2.71a2 2 0 0 0-2 2v7.64H7.6v-6.73a6.37 6.37 0 0 0 3.33-1.33a7.8 7.8 0 0 1-1.39-2.52"/>
    </symbol>

    </svg>