<svg xmlns="http://www.w3.org/2000/svg" viewBox="0 9.050000190734863 660.5499877929688 49.45000076293945" data-asc="0.968" width="660.5499877929688" height="49.45000076293945"><defs/><g fill="#000000"><g transform="translate(0, 0)"><path d="M14.25 49Q10.05 49 6.20 47.88Q2.35 46.75 0 44.95L2.75 38.85Q5 40.45 8.07 41.47Q11.15 42.50 14.30 42.50Q16.70 42.50 18.18 42.02Q19.65 41.55 20.35 40.70Q21.05 39.85 21.05 38.75Q21.05 37.35 19.95 36.52Q18.85 35.70 17.05 35.17Q15.25 34.65 13.08 34.17Q10.90 33.70 8.72 33Q6.55 32.30 4.75 31.20Q2.95 30.10 1.82 28.30Q0.70 26.50 0.70 23.70Q0.70 20.70 2.33 18.22Q3.95 15.75 7.22 14.27Q10.50 12.80 15.45 12.80Q18.75 12.80 21.95 13.57Q25.15 14.35 27.60 15.90L25.10 22.05Q22.65 20.65 20.20 19.97Q17.75 19.30 15.40 19.30Q13.05 19.30 11.55 19.85Q10.05 20.40 9.40 21.27Q8.75 22.15 8.75 23.30Q8.75 24.65 9.85 25.47Q10.95 26.30 12.75 26.80Q14.55 27.30 16.73 27.80Q18.90 28.30 21.08 28.95Q23.25 29.60 25.05 30.70Q26.85 31.80 27.98 33.60Q29.10 35.40 29.10 38.15Q29.10 41.10 27.45 43.55Q25.80 46 22.53 47.50Q19.25 49 14.25 49ZM45.10 48.80Q40.35 48.80 37.70 46.38Q35.05 43.95 35.05 39.15L35.05 15.55L42.85 15.55L42.85 39.05Q42.85 40.75 43.75 41.67Q44.65 42.60 46.20 42.60Q48.05 42.60 49.35 41.60L51.45 47.10Q50.25 47.95 48.58 48.38Q46.90 48.80 45.10 48.80M30.90 28.10L30.90 22.10L49.55 22.10L49.55 28.10L30.90 28.10ZM72.35 48.40L72.35 43.15L71.85 42L71.85 32.60Q71.85 30.10 70.33 28.70Q68.80 27.30 65.65 27.30Q63.50 27.30 61.42 27.97Q59.35 28.65 57.90 29.80L55.10 24.35Q57.30 22.80 60.40 21.95Q63.50 21.10 66.70 21.10Q72.85 21.10 76.25 24.00Q79.65 26.90 79.65 33.05L79.65 48.40L72.35 48.40M64.15 48.80Q61 48.80 58.75 47.73Q56.50 46.65 55.30 44.80Q54.10 42.95 54.10 40.65Q54.10 38.25 55.27 36.45Q56.45 34.65 59 33.63Q61.55 32.60 65.65 32.60L72.80 32.60L72.80 37.15L66.50 37.15Q63.75 37.15 62.73 38.05Q61.70 38.95 61.70 40.30Q61.70 41.80 62.88 42.67Q64.05 43.55 66.10 43.55Q68.05 43.55 69.60 42.63Q71.15 41.70 71.85 39.90L73.05 43.50Q72.20 46.10 69.95 47.45Q67.70 48.80 64.15 48.80ZM90.10 58.50Q88 58.50 85.95 57.85Q83.90 57.20 82.60 56.05L85.45 50.50Q86.35 51.30 87.52 51.75Q88.70 52.20 89.85 52.20Q91.50 52.20 92.47 51.42Q93.45 50.65 94.25 48.85L95.65 45.55L96.25 44.70L105.90 21.50L113.40 21.50L101.25 50.05Q99.95 53.30 98.27 55.15Q96.60 57 94.57 57.75Q92.55 58.50 90.10 58.50M94.70 49.45L82.70 21.50L90.75 21.50L100.05 44L94.70 49.45ZM148.05 49Q144 49 140.53 47.67Q137.05 46.35 134.50 43.90Q131.95 41.45 130.53 38.15Q129.10 34.85 129.10 30.90Q129.10 26.95 130.53 23.65Q131.95 20.35 134.53 17.90Q137.10 15.45 140.55 14.13Q144 12.80 148.10 12.80Q152.65 12.80 156.33 14.38Q160 15.95 162.50 19.00L157.30 23.80Q155.50 21.75 153.30 20.72Q151.10 19.70 148.50 19.70Q146.05 19.70 144 20.50Q141.95 21.30 140.45 22.80Q138.95 24.30 138.13 26.35Q137.30 28.40 137.30 30.90Q137.30 33.40 138.13 35.45Q138.95 37.50 140.45 39Q141.95 40.50 144 41.30Q146.05 42.10 148.50 42.10Q151.10 42.10 153.30 41.07Q155.50 40.05 157.30 37.95L162.50 42.75Q160 45.80 156.33 47.40Q152.65 49 148.05 49ZM183.90 48.40L183.90 43.15L183.40 42L183.40 32.60Q183.40 30.10 181.88 28.70Q180.35 27.30 177.20 27.30Q175.05 27.30 172.98 27.97Q170.90 28.65 169.45 29.80L166.65 24.35Q168.85 22.80 171.95 21.95Q175.05 21.10 178.25 21.10Q184.40 21.10 187.80 24.00Q191.20 26.90 191.20 33.05L191.20 48.40L183.90 48.40M175.70 48.80Q172.55 48.80 170.30 47.73Q168.05 46.65 166.85 44.80Q165.65 42.95 165.65 40.65Q165.65 38.25 166.83 36.45Q168 34.65 170.55 33.63Q173.10 32.60 177.20 32.60L184.35 32.60L184.35 37.15L178.05 37.15Q175.30 37.15 174.28 38.05Q173.25 38.95 173.25 40.30Q173.25 41.80 174.43 42.67Q175.60 43.55 177.65 43.55Q179.60 43.55 181.15 42.63Q182.70 41.70 183.40 39.90L184.60 43.50Q183.75 46.10 181.50 47.45Q179.25 48.80 175.70 48.80ZM198.25 48.40L198.25 11.30L206.05 11.30L206.05 48.40L198.25 48.40ZM247.75 21.10Q250.95 21.10 253.43 22.37Q255.90 23.65 257.33 26.27Q258.75 28.90 258.75 33L258.75 48.40L250.95 48.40L250.95 34.20Q250.95 30.95 249.60 29.40Q248.25 27.85 245.80 27.85Q244.10 27.85 242.75 28.62Q241.40 29.40 240.65 30.95Q239.90 32.50 239.90 34.90L239.90 48.40L232.10 48.40L232.10 34.20Q232.10 30.95 230.78 29.40Q229.45 27.85 227.00 27.85Q225.30 27.85 223.95 28.62Q222.60 29.40 221.85 30.95Q221.10 32.50 221.10 34.90L221.10 48.40L213.30 48.40L213.30 21.50L220.75 21.50L220.75 28.85L219.35 26.70Q220.75 23.95 223.33 22.52Q225.90 21.10 229.20 21.10Q232.90 21.10 235.68 22.97Q238.45 24.85 239.35 28.70L236.60 27.95Q237.95 24.80 240.93 22.95Q243.90 21.10 247.75 21.10ZM291.45 49Q287.60 49 284.60 47.75Q281.60 46.50 279.85 44.35Q278.10 42.20 278.10 39.40Q278.10 36.80 279.25 34.72Q280.40 32.65 282.90 30.82Q285.40 29.00 289.25 27.25Q292.05 25.95 293.65 24.95Q295.25 23.95 295.90 23.02Q296.55 22.10 296.55 21.15Q296.55 19.85 295.68 19.05Q294.80 18.25 293.10 18.25Q291.30 18.25 290.30 19.15Q289.30 20.05 289.30 21.45Q289.30 22.20 289.60 22.92Q289.90 23.65 290.75 24.57Q291.60 25.50 293.15 26.95L311.60 44.05L307.35 49L287 30.10Q285.25 28.50 284.20 27.10Q283.15 25.70 282.68 24.35Q282.20 23.00 282.20 21.55Q282.20 19.00 283.55 17.05Q284.90 15.10 287.35 14.02Q289.80 12.95 293.10 12.95Q296.15 12.95 298.38 13.92Q300.60 14.90 301.88 16.70Q303.15 18.50 303.15 21.00Q303.15 23.20 302.05 25.02Q300.95 26.85 298.63 28.45Q296.30 30.05 292.55 31.70Q290 32.85 288.53 33.92Q287.05 35 286.40 36.10Q285.75 37.20 285.75 38.55Q285.75 39.80 286.53 40.80Q287.30 41.80 288.70 42.35Q290.10 42.90 292 42.90Q295.05 42.90 297.60 41.47Q300.15 40.05 301.93 37.22Q303.70 34.40 304.45 30.35L310.70 32.30Q309.65 37.40 306.95 41.15Q304.25 44.90 300.30 46.95Q296.35 49 291.45 49ZM338.25 40.40L337.80 31.05L354.55 13.40L363.55 13.40L348.45 29.65L343.95 34.45L338.25 40.40M331.00 48.40L331.00 13.40L339.05 13.40L339.05 48.40L331.00 48.40M354.95 48.40L342.50 33.15L347.80 27.40L364.40 48.40L354.95 48.40ZM380.80 48.80Q376.20 48.80 372.72 47Q369.25 45.20 367.35 42.07Q365.45 38.95 365.45 34.95Q365.45 30.90 367.32 27.77Q369.20 24.65 372.45 22.87Q375.70 21.10 379.80 21.10Q383.75 21.10 386.92 22.77Q390.10 24.45 391.95 27.57Q393.80 30.70 393.80 35.05Q393.80 35.50 393.75 36.07Q393.70 36.65 393.65 37.15L371.80 37.15L371.80 32.60L389.55 32.60L386.55 33.95Q386.55 31.85 385.70 30.30Q384.85 28.75 383.35 27.87Q381.85 27.00 379.85 27.00Q377.85 27.00 376.32 27.87Q374.80 28.75 373.95 30.32Q373.10 31.90 373.10 34.05L373.10 35.25Q373.10 37.45 374.07 39.13Q375.05 40.80 376.82 41.67Q378.60 42.55 381.00 42.55Q383.15 42.55 384.77 41.90Q386.40 41.25 387.75 39.95L391.90 44.45Q390.05 46.55 387.25 47.67Q384.45 48.80 380.80 48.80ZM412.35 48.80Q407.75 48.80 404.27 47Q400.80 45.20 398.90 42.07Q397 38.95 397 34.95Q397 30.90 398.88 27.77Q400.75 24.65 404 22.87Q407.25 21.10 411.35 21.10Q415.30 21.10 418.47 22.77Q421.65 24.45 423.50 27.57Q425.35 30.70 425.35 35.05Q425.35 35.50 425.30 36.07Q425.25 36.65 425.20 37.15L403.35 37.15L403.35 32.60L421.10 32.60L418.10 33.95Q418.10 31.85 417.25 30.30Q416.40 28.75 414.90 27.87Q413.40 27.00 411.40 27.00Q409.40 27.00 407.88 27.87Q406.35 28.75 405.50 30.32Q404.65 31.90 404.65 34.05L404.65 35.25Q404.65 37.45 405.63 39.13Q406.60 40.80 408.38 41.67Q410.15 42.55 412.55 42.55Q414.70 42.55 416.32 41.90Q417.95 41.25 419.30 39.95L423.45 44.45Q421.60 46.55 418.80 47.67Q416 48.80 412.35 48.80ZM446.45 48.80Q443.05 48.80 440.50 47.30Q437.95 45.80 436.52 42.72Q435.10 39.65 435.10 34.95Q435.10 30.20 436.45 27.15Q437.80 24.10 440.35 22.60Q442.90 21.10 446.45 21.10Q450.25 21.10 453.27 22.82Q456.30 24.55 458.07 27.65Q459.85 30.75 459.85 34.95Q459.85 39.20 458.07 42.30Q456.30 45.40 453.27 47.10Q450.25 48.80 446.45 48.80M430.55 58.10L430.55 21.50L438 21.50L438 27.00L437.85 35L438.35 42.95L438.35 58.10L430.55 58.10M445.10 42.40Q447.05 42.40 448.57 41.50Q450.10 40.60 451.02 38.92Q451.95 37.25 451.95 34.95Q451.95 32.60 451.02 30.95Q450.10 29.30 448.57 28.40Q447.05 27.50 445.10 27.50Q443.15 27.50 441.60 28.40Q440.05 29.30 439.15 30.95Q438.25 32.60 438.25 34.95Q438.25 37.25 439.15 38.92Q440.05 40.60 441.60 41.50Q443.15 42.40 445.10 42.40ZM496.50 49Q492.45 49 488.97 47.67Q485.50 46.35 482.95 43.90Q480.40 41.45 478.97 38.15Q477.55 34.85 477.55 30.90Q477.55 26.95 478.97 23.65Q480.40 20.35 482.97 17.90Q485.55 15.45 489.00 14.13Q492.45 12.80 496.55 12.80Q501.10 12.80 504.77 14.38Q508.45 15.95 510.95 19.00L505.75 23.80Q503.95 21.75 501.75 20.72Q499.55 19.70 496.95 19.70Q494.50 19.70 492.45 20.50Q490.40 21.30 488.90 22.80Q487.40 24.30 486.57 26.35Q485.75 28.40 485.75 30.90Q485.75 33.40 486.57 35.45Q487.40 37.50 488.90 39Q490.40 40.50 492.45 41.30Q494.50 42.10 496.95 42.10Q499.55 42.10 501.75 41.07Q503.95 40.05 505.75 37.95L510.95 42.75Q508.45 45.80 504.77 47.40Q501.10 49 496.50 49ZM528.65 48.80Q524.35 48.80 521.02 47Q517.70 45.20 515.77 42.07Q513.85 38.95 513.85 34.95Q513.85 30.90 515.77 27.77Q517.70 24.65 521.02 22.87Q524.35 21.10 528.65 21.10Q532.90 21.10 536.25 22.87Q539.60 24.65 541.50 27.75Q543.40 30.85 543.40 34.95Q543.40 38.95 541.50 42.07Q539.60 45.20 536.25 47Q532.90 48.80 528.65 48.80M528.65 42.40Q530.60 42.40 532.15 41.50Q533.70 40.60 534.60 38.92Q535.50 37.25 535.50 34.95Q535.50 32.60 534.60 30.95Q533.70 29.30 532.15 28.40Q530.60 27.50 528.65 27.50Q526.70 27.50 525.15 28.40Q523.60 29.30 522.67 30.95Q521.75 32.60 521.75 34.95Q521.75 37.25 522.67 38.92Q523.60 40.60 525.15 41.50Q526.70 42.40 528.65 42.40ZM560.15 48.80Q556.35 48.80 553.30 47.07Q550.25 45.35 548.48 42.25Q546.70 39.15 546.70 34.95Q546.70 30.70 548.48 27.60Q550.25 24.50 553.30 22.80Q556.35 21.10 560.15 21.10Q563.55 21.10 566.10 22.60Q568.65 24.10 570.05 27.15Q571.45 30.20 571.45 34.95Q571.45 39.65 570.10 42.72Q568.75 45.80 566.23 47.30Q563.70 48.80 560.15 48.80M561.50 42.40Q563.40 42.40 564.95 41.50Q566.50 40.60 567.42 38.92Q568.35 37.25 568.35 34.95Q568.35 32.60 567.42 30.95Q566.50 29.30 564.95 28.40Q563.40 27.50 561.50 27.50Q559.55 27.50 558 28.40Q556.45 29.30 555.52 30.95Q554.60 32.60 554.60 34.95Q554.60 37.25 555.52 38.92Q556.45 40.60 558 41.50Q559.55 42.40 561.50 42.40M568.55 48.40L568.55 42.90L568.70 34.90L568.20 26.95L568.20 11.30L576 11.30L576 48.40L568.55 48.40ZM583.20 48.40L583.20 21.50L591 21.50L591 48.40L583.20 48.40M587.10 17.75Q584.95 17.75 583.60 16.50Q582.25 15.25 582.25 13.40Q582.25 11.55 583.60 10.30Q584.95 9.05 587.10 9.05Q589.25 9.05 590.60 10.22Q591.95 11.40 591.95 13.25Q591.95 15.20 590.63 16.47Q589.30 17.75 587.10 17.75ZM614.60 21.10Q617.80 21.10 620.32 22.37Q622.85 23.65 624.30 26.27Q625.75 28.90 625.75 33L625.75 48.40L617.95 48.40L617.95 34.20Q617.95 30.95 616.52 29.40Q615.10 27.85 612.50 27.85Q610.65 27.85 609.17 28.62Q607.70 29.40 606.88 31.00Q606.05 32.60 606.05 35.10L606.05 48.40L598.25 48.40L598.25 21.50L605.70 21.50L605.70 28.95L604.30 26.70Q605.75 24.00 608.45 22.55Q611.15 21.10 614.60 21.10ZM645.45 58.50Q641.65 58.50 638.12 57.58Q634.60 56.65 632.25 54.80L635.35 49.20Q637.05 50.60 639.67 51.42Q642.30 52.25 644.85 52.25Q649.00 52.25 650.87 50.40Q652.75 48.55 652.75 44.90L652.75 40.85L653.25 34.10L653.15 27.30L653.15 21.50L660.55 21.50L660.55 43.90Q660.55 51.40 656.65 54.95Q652.75 58.50 645.45 58.50M644.25 47.10Q640.50 47.10 637.47 45.48Q634.45 43.85 632.62 40.92Q630.80 38 630.80 34.10Q630.80 30.15 632.62 27.22Q634.45 24.30 637.47 22.70Q640.50 21.10 644.25 21.10Q647.65 21.10 650.25 22.47Q652.85 23.85 654.30 26.72Q655.75 29.60 655.75 34.10Q655.75 38.55 654.30 41.42Q652.85 44.30 650.25 45.70Q647.65 47.10 644.25 47.10M645.80 40.70Q647.85 40.70 649.45 39.88Q651.05 39.05 651.95 37.55Q652.85 36.05 652.85 34.10Q652.85 32.10 651.95 30.62Q651.05 29.15 649.45 28.32Q647.85 27.50 645.80 27.50Q643.75 27.50 642.15 28.32Q640.55 29.15 639.62 30.62Q638.70 32.10 638.70 34.10Q638.70 36.05 639.62 37.55Q640.55 39.05 642.15 39.88Q643.75 40.70 645.80 40.70Z"/></g></g></svg>